<?xml version="1.0" encoding="UTF-8"?>
<!DOCTYPE svg PUBLIC "-//W3C//DTD SVG 1.1//EN" "http://www.w3.org/Graphics/SVG/1.1/DTD/svg11.dtd">
<svg xmlns="http://www.w3.org/2000/svg" version="1.1" width="512px" height="512px" style="shape-rendering:geometricPrecision; text-rendering:geometricPrecision; image-rendering:optimizeQuality; fill-rule:evenodd; clip-rule:evenodd" xmlns:xlink="http://www.w3.org/1999/xlink">
<g><path style="opacity:0.999" fill="#00d6e1" d="M 49.5,79.5 C 110.167,131.5 170.833,183.5 231.5,235.5C 213.687,235.325 201.854,243.658 196,260.5C 195.071,267.418 195.571,274.085 197.5,280.5C 205.727,296.608 218.727,302.442 236.5,298C 238.421,297.64 240.088,296.806 241.5,295.5C 242.496,289.537 242.829,283.537 242.5,277.5C 236.963,279.291 231.296,279.791 225.5,279C 220.639,276.113 218.306,271.78 218.5,266C 220.674,256.241 226.674,252.574 236.5,255C 238.167,255.833 239.833,256.667 241.5,257.5C 242.492,253.217 242.826,248.884 242.5,244.5C 245.215,246.548 247.548,248.882 249.5,251.5C 242.881,266.211 244.881,279.711 255.5,292C 269.429,301.487 283.762,301.987 298.5,293.5C 300.255,294.072 301.922,294.906 303.5,296C 336.167,324 368.833,352 401.5,380C 267.5,380.5 133.5,380.667 -0.5,380.5C -0.5,293.5 -0.5,206.5 -0.5,119.5C 6.57988,94.2819 23.2466,80.9485 49.5,79.5 Z"/></g>
<g><path style="opacity:1" fill="#04b2bf" d="M 51.5,79.5 C 191.5,79.3333 331.5,79.5 471.5,80C 492.681,85.3483 506.014,98.5149 511.5,119.5C 511.5,153.5 511.5,187.5 511.5,221.5C 361.848,175.784 212.181,129.951 62.5,84C 58.5317,82.9623 54.865,81.4623 51.5,79.5 Z"/></g>
<g><path style="opacity:1" fill="#09bdcb" d="M 49.5,79.5 C 50.1667,79.5 50.8333,79.5 51.5,79.5C 54.865,81.4623 58.5317,82.9623 62.5,84C 212.181,129.951 361.848,175.784 511.5,221.5C 511.5,274.833 511.5,328.167 511.5,381.5C 340.833,381.5 170.167,381.5 -0.5,381.5C -0.5,381.167 -0.5,380.833 -0.5,380.5C 133.5,380.667 267.5,380.5 401.5,380C 368.833,352 336.167,324 303.5,296C 301.922,294.906 300.255,294.072 298.5,293.5C 302.18,289.481 304.847,284.814 306.5,279.5C 299.5,278.167 292.5,278.167 285.5,279.5C 280.386,285.729 274.886,286.062 269,280.5C 267.748,277.986 267.248,275.32 267.5,272.5C 280.5,272.5 293.5,272.5 306.5,272.5C 308.347,244.518 295.347,232.684 267.5,237C 259.7,239.717 253.7,244.55 249.5,251.5C 247.548,248.882 245.215,246.548 242.5,244.5C 243.113,240.488 241.446,238.488 237.5,238.5C 235.5,237.5 233.5,236.5 231.5,235.5C 170.833,183.5 110.167,131.5 49.5,79.5 Z"/></g>
<g><path style="opacity:1" fill="#0f528c" d="M 416.5,204.5 C 415.833,205.5 415.167,206.5 414.5,207.5C 413.571,208.315 412.571,209.148 411.5,210C 412.056,210.383 412.389,210.883 412.5,211.5C 409.995,211.98 407.662,212.98 405.5,214.5C 405.167,214.167 404.833,213.833 404.5,213.5C 406.611,212.395 407.945,210.729 408.5,208.5C 404.993,208.92 401.659,209.92 398.5,211.5C 403.687,207.357 409.687,205.024 416.5,204.5 Z"/></g>
<g><path style="opacity:1" fill="#0e89ac" d="M 425.5,204.5 C 429.427,204.926 433.093,205.926 436.5,207.5C 435.07,207.421 433.736,207.754 432.5,208.5C 430.107,207.071 427.774,205.737 425.5,204.5 Z"/></g>
<g><path style="opacity:1" fill="#0ba7be" d="M 408.5,208.5 C 409.799,206.901 411.465,206.401 413.5,207C 412.069,207.465 410.903,208.299 410,209.5C 409.617,208.944 409.117,208.611 408.5,208.5 Z"/></g>
<g><path style="opacity:1" fill="#2256a4" d="M 175.5,207.5 C 188.059,208.214 192.559,214.548 189,226.5C 180.331,235.166 172.998,234.166 167,223.5C 165.88,216.073 168.713,210.74 175.5,207.5 Z"/></g>
<g><path style="opacity:1" fill="#0b3178" d="M 331.5,208.5 C 336.167,208.5 340.833,208.5 345.5,208.5C 345.5,213.833 345.5,219.167 345.5,224.5C 341.743,224.071 338.243,224.737 335,226.5C 333.633,230.7 333.133,235.033 333.5,239.5C 337.167,239.5 340.833,239.5 344.5,239.5C 344.5,244.833 344.5,250.167 344.5,255.5C 340.833,255.5 337.167,255.5 333.5,255.5C 333.5,269.167 333.5,282.833 333.5,296.5C 326.167,296.5 318.833,296.5 311.5,296.5C 311.072,272.466 311.572,248.466 313,224.5C 316.11,215.542 322.277,210.209 331.5,208.5 Z"/></g>
<g><path style="opacity:1" fill="#0ab7c8" d="M 408.5,208.5 C 407.945,210.729 406.611,212.395 404.5,213.5C 404.833,213.833 405.167,214.167 405.5,214.5C 407.662,212.98 409.995,211.98 412.5,211.5C 412.898,213.711 413.064,216.044 413,218.5C 414.34,217.132 415.674,215.799 417,214.5C 418.44,215.148 419.94,215.481 421.5,215.5C 421.5,217.833 421.5,220.167 421.5,222.5C 416.371,222.719 416.371,223.386 421.5,224.5C 421.5,227.167 421.5,229.833 421.5,232.5C 420.391,233.29 419.058,233.79 417.5,234C 418.448,234.483 419.448,234.649 420.5,234.5C 421.167,239.833 421.833,239.833 422.5,234.5C 432.463,234.102 432.63,235.768 423,239.5C 419.862,242.308 418.028,245.808 417.5,250C 419.309,252.809 421.476,255.309 424,257.5C 424.671,261.517 425.004,265.517 425,269.5C 417.688,271.395 410.521,273.729 403.5,276.5C 398.291,276.294 395.958,273.627 396.5,268.5C 403.126,269.118 409.792,268.951 416.5,268C 418.229,266.211 418.896,264.044 418.5,261.5C 417.07,261.579 415.736,261.246 414.5,260.5C 411.055,262.591 407.389,262.758 403.5,261C 400.775,255.923 399.775,250.423 400.5,244.5C 402.819,245.167 405.153,245.334 407.5,245C 409.333,243.167 411.167,241.333 413,239.5C 413.133,236.475 414.133,233.808 416,231.5C 416.514,223.982 413.014,219.149 405.5,217C 400.495,216.083 396.328,217.583 393,221.5C 391.768,226.721 391.101,232.054 391,237.5C 389.028,239.232 386.861,240.565 384.5,241.5C 385.625,236.508 387.292,231.674 389.5,227C 389.333,226.5 389.167,226 389,225.5C 387.811,227.233 386.644,228.9 385.5,230.5C 384.833,230.5 384.167,230.5 383.5,230.5C 386.836,222.816 391.836,216.482 398.5,211.5C 401.659,209.92 404.993,208.92 408.5,208.5 Z"/></g>
<g><path style="opacity:1" fill="#0ab3c5" d="M 414.5,207.5 C 415.552,207.351 416.552,207.517 417.5,208C 416.211,209.802 414.544,210.969 412.5,211.5C 412.389,210.883 412.056,210.383 411.5,210C 412.571,209.148 413.571,208.315 414.5,207.5 Z"/></g>
<g><path style="opacity:1" fill="#0ab8c8" d="M 452.5,220.5 C 451.094,224.725 448.761,225.725 445.5,223.5C 444.752,221.668 443.752,220.001 442.5,218.5C 442.712,216.616 443.712,215.283 445.5,214.5C 447.853,216.523 450.186,218.523 452.5,220.5 Z"/></g>
<g><path style="opacity:1" fill="#0f79a3" d="M 452.5,220.5 C 450.186,218.523 447.853,216.523 445.5,214.5C 443.712,215.283 442.712,216.616 442.5,218.5C 441.662,218.158 441.328,217.492 441.5,216.5C 444.018,214.643 444.018,212.81 441.5,211C 446.475,212.463 450.142,215.63 452.5,220.5 Z"/></g>
<g><path style="opacity:1" fill="#0d387c" d="M 472.5,227.5 C 472.52,229.143 471.853,230.476 470.5,231.5C 472.09,236.089 471.09,237.089 467.5,234.5C 465.979,231.292 464.312,228.126 462.5,225C 463.648,223.274 464.815,223.441 466,225.5C 466.167,225.167 466.333,224.833 466.5,224.5C 461.657,214.129 462.824,213.129 470,221.5C 471.122,223.407 471.955,225.407 472.5,227.5 Z"/></g>
<g><path style="opacity:1" fill="#0e3d7f" d="M 416.5,204.5 C 419.5,204.5 422.5,204.5 425.5,204.5C 427.774,205.737 430.107,207.071 432.5,208.5C 433.736,207.754 435.07,207.421 436.5,207.5C 440.394,209.264 440.227,209.597 436,208.5C 434.77,209.275 434.437,210.275 435,211.5C 436.777,213.79 438.944,215.457 441.5,216.5C 441.328,217.492 441.662,218.158 442.5,218.5C 443.752,220.001 444.752,221.668 445.5,223.5C 444.833,223.5 444.5,223.833 444.5,224.5C 443.215,222.938 441.715,221.604 440,220.5C 437.709,221.395 435.876,222.729 434.5,224.5C 433.662,224.842 433.328,225.508 433.5,226.5C 432.937,224.68 431.771,223.347 430,222.5C 427.566,223.322 425.066,223.656 422.5,223.5C 422.5,226.5 422.5,229.5 422.5,232.5C 422.167,232.5 421.833,232.5 421.5,232.5C 421.5,229.833 421.5,227.167 421.5,224.5C 416.371,223.386 416.371,222.719 421.5,222.5C 421.5,220.167 421.5,217.833 421.5,215.5C 419.94,215.481 418.44,215.148 417,214.5C 415.674,215.799 414.34,217.132 413,218.5C 413.064,216.044 412.898,213.711 412.5,211.5C 414.544,210.969 416.211,209.802 417.5,208C 416.552,207.517 415.552,207.351 414.5,207.5C 415.167,206.5 415.833,205.5 416.5,204.5 Z"/></g>
<g><path style="opacity:1" fill="#0ab7c8" d="M 425.5,214.5 C 426.496,214.414 427.329,214.748 428,215.5C 428.707,217.081 429.54,218.581 430.5,220C 428.138,221.731 425.471,222.565 422.5,222.5C 422.5,220.167 422.5,217.833 422.5,215.5C 423.791,215.737 424.791,215.404 425.5,214.5 Z"/></g>
<g><path style="opacity:1" fill="#0ab6c7" d="M 431.5,211.5 C 434.407,212.734 436.741,214.734 438.5,217.5C 433.666,222.173 430.666,221.173 429.5,214.5C 429.942,213.261 430.609,212.261 431.5,211.5 Z"/></g>
<g><path style="opacity:1" fill="#0bb2c5" d="M 422.5,209.5 C 427.195,212.025 427.195,213.358 422.5,213.5C 422.5,212.167 422.5,210.833 422.5,209.5 Z"/></g>
<g><path style="opacity:1" fill="#0da3bc" d="M 424.5,208.5 C 424.56,207.957 424.893,207.624 425.5,207.5C 427.167,208.333 428.833,209.167 430.5,210C 429.975,210.692 429.308,211.192 428.5,211.5C 427.148,210.476 425.815,209.476 424.5,208.5 Z"/></g>
<g><path style="opacity:1" fill="#0ab5c6" d="M 419.5,208.5 C 420.613,209.946 420.78,211.613 420,213.5C 418.933,212.809 417.766,212.309 416.5,212C 417.71,210.961 418.71,209.794 419.5,208.5 Z"/></g>
<g><path style="opacity:1" fill="#0b3178" d="M 421.5,232.5 C 421.833,232.5 422.167,232.5 422.5,232.5C 425.839,232.11 429.173,231.61 432.5,231C 433.38,229.644 433.714,228.144 433.5,226.5C 433.328,225.508 433.662,224.842 434.5,224.5C 436.835,230.1 440.502,230.933 445.5,227C 444.748,226.329 444.414,225.496 444.5,224.5C 444.5,223.833 444.833,223.5 445.5,223.5C 448.761,225.725 451.094,224.725 452.5,220.5C 453.974,221.436 454.974,222.77 455.5,224.5C 454.508,224.328 453.842,224.662 453.5,225.5C 451.387,226.548 449.72,228.048 448.5,230C 461.146,240.177 461.813,251.177 450.5,263C 447.553,265.164 444.219,265.998 440.5,265.5C 440.379,269.31 441.712,272.477 444.5,275C 429.35,286.876 413.683,287.543 397.5,277C 386.255,267.411 381.921,255.578 384.5,241.5C 386.861,240.565 389.028,239.232 391,237.5C 391.101,232.054 391.768,226.721 393,221.5C 396.328,217.583 400.495,216.083 405.5,217C 413.014,219.149 416.514,223.982 416,231.5C 414.133,233.808 413.133,236.475 413,239.5C 411.167,241.333 409.333,243.167 407.5,245C 405.153,245.334 402.819,245.167 400.5,244.5C 399.775,250.423 400.775,255.923 403.5,261C 407.389,262.758 411.055,262.591 414.5,260.5C 415.736,261.246 417.07,261.579 418.5,261.5C 418.896,264.044 418.229,266.211 416.5,268C 409.792,268.951 403.126,269.118 396.5,268.5C 395.958,273.627 398.291,276.294 403.5,276.5C 410.521,273.729 417.688,271.395 425,269.5C 425.004,265.517 424.671,261.517 424,257.5C 421.476,255.309 419.309,252.809 417.5,250C 418.028,245.808 419.862,242.308 423,239.5C 432.63,235.768 432.463,234.102 422.5,234.5C 421.833,239.833 421.167,239.833 420.5,234.5C 419.448,234.649 418.448,234.483 417.5,234C 419.058,233.79 420.391,233.29 421.5,232.5 Z"/></g>
<g><path style="opacity:1" fill="#0ab5c6" d="M 444.5,224.5 C 444.414,225.496 444.748,226.329 445.5,227C 440.502,230.933 436.835,230.1 434.5,224.5C 435.876,222.729 437.709,221.395 440,220.5C 441.715,221.604 443.215,222.938 444.5,224.5 Z"/></g>
<g><path style="opacity:1" fill="#0ab7c7" d="M 433.5,226.5 C 433.714,228.144 433.38,229.644 432.5,231C 429.173,231.61 425.839,232.11 422.5,232.5C 422.5,229.5 422.5,226.5 422.5,223.5C 425.066,223.656 427.566,223.322 430,222.5C 431.771,223.347 432.937,224.68 433.5,226.5 Z"/></g>
<g><path style="opacity:1" fill="#10508a" d="M 398.5,211.5 C 391.836,216.482 386.836,222.816 383.5,230.5C 382.337,233.809 381.17,237.143 380,240.5C 381.142,227.534 387.308,217.867 398.5,211.5 Z"/></g>
<g><path style="opacity:1" fill="#0d3b7e" d="M 384.5,241.5 C 383.853,240.726 383.52,239.726 383.5,238.5C 384.175,235.822 384.842,233.156 385.5,230.5C 386.644,228.9 387.811,227.233 389,225.5C 389.167,226 389.333,226.5 389.5,227C 387.292,231.674 385.625,236.508 384.5,241.5 Z"/></g>
<g><path style="opacity:1" fill="#0e3a7d" d="M 376.5,222.5 C 374.224,225.792 371.891,229.125 369.5,232.5C 366.984,244.052 368.651,245.052 374.5,235.5C 374.333,235.167 374.167,234.833 374,234.5C 371.289,237.165 370.289,236.498 371,232.5C 373.001,229.669 375.167,227.003 377.5,224.5C 378.458,224.047 379.292,223.381 380,222.5C 379.993,225.863 378.827,228.863 376.5,231.5C 377.167,232.167 377.833,232.833 378.5,233.5C 377.153,236.193 375.82,238.86 374.5,241.5C 372.592,244.28 370.425,246.947 368,249.5C 367.349,247.765 367.515,246.098 368.5,244.5C 367.282,244.891 366.448,244.224 366,242.5C 365.505,240.527 365.338,238.527 365.5,236.5C 365.392,232.753 365.892,229.086 367,225.5C 367.741,224.359 368.575,224.359 369.5,225.5C 371.168,221.157 374.001,217.824 378,215.5C 377.843,217.831 377.343,220.164 376.5,222.5 Z"/></g>
<g><path style="opacity:1" fill="#0e568e" d="M 453.5,225.5 C 453.842,224.662 454.508,224.328 455.5,224.5C 459.859,230.419 461.693,237.086 461,244.5C 460.404,238.114 458.571,232.114 455.5,226.5C 455.043,225.702 454.376,225.369 453.5,225.5 Z"/></g>
<g><path style="opacity:1" fill="#0e3a7d" d="M 470.5,246.5 C 470.262,244.596 469.262,243.262 467.5,242.5C 466.058,239.78 464.725,236.946 463.5,234C 463.667,233.5 463.833,233 464,232.5C 464.816,233.823 465.983,234.489 467.5,234.5C 469.478,237.333 471.311,240.333 473,243.5C 473.499,238.177 473.666,232.844 473.5,227.5C 473.672,223.029 474.506,222.696 476,226.5C 477.181,234.195 476.181,241.528 473,248.5C 472.292,247.619 471.458,246.953 470.5,246.5 Z"/></g>
<g><path style="opacity:1" fill="#0f99b6" d="M 376.5,222.5 C 376.328,223.492 376.662,224.158 377.5,224.5C 375.167,227.003 373.001,229.669 371,232.5C 370.289,236.498 371.289,237.165 374,234.5C 374.167,234.833 374.333,235.167 374.5,235.5C 368.651,245.052 366.984,244.052 369.5,232.5C 371.891,229.125 374.224,225.792 376.5,222.5 Z"/></g>
<g><path style="opacity:1" fill="#2255a3" d="M 98.5,297.5 C 98.5,278.167 98.5,258.833 98.5,239.5C 105.167,239.5 111.833,239.5 118.5,239.5C 118.201,241.604 118.534,243.604 119.5,245.5C 120.107,245.376 120.44,245.043 120.5,244.5C 132.309,234.172 144.475,233.839 157,243.5C 158.368,246.186 159.701,248.853 161,251.5C 161.5,266.83 161.667,282.163 161.5,297.5C 154.167,297.5 146.833,297.5 139.5,297.5C 139.667,285.495 139.5,273.495 139,261.5C 136.193,254.608 131.36,252.775 124.5,256C 122.19,257.637 120.69,259.804 120,262.5C 119.5,274.162 119.333,285.829 119.5,297.5C 112.5,297.5 105.5,297.5 98.5,297.5 Z"/></g>
<g><path style="opacity:1" fill="#2255a3" d="M 231.5,235.5 C 233.5,236.5 235.5,237.5 237.5,238.5C 224.535,251.965 211.369,265.299 198,278.5C 197.536,279.094 197.369,279.761 197.5,280.5C 195.571,274.085 195.071,267.418 196,260.5C 201.854,243.658 213.687,235.325 231.5,235.5 Z"/></g>
<g><path style="opacity:1" fill="#0b3178" d="M 298.5,293.5 C 283.762,301.987 269.429,301.487 255.5,292C 244.881,279.711 242.881,266.211 249.5,251.5C 253.7,244.55 259.7,239.717 267.5,237C 295.347,232.684 308.347,244.518 306.5,272.5C 293.5,272.5 280.5,272.5 267.5,272.5C 267.248,275.32 267.748,277.986 269,280.5C 274.886,286.062 280.386,285.729 285.5,279.5C 292.5,278.167 299.5,278.167 306.5,279.5C 304.847,284.814 302.18,289.481 298.5,293.5 Z"/></g>
<g><path style="opacity:1" fill="#0c347a" d="M 363.5,238.5 C 366.159,244.565 366.992,250.898 366,257.5C 364.236,255.611 362.736,253.611 361.5,251.5C 360.668,246.519 360.502,241.519 361,236.5C 362.625,235.588 363.459,236.255 363.5,238.5 Z"/></g>
<g><path style="opacity:1" fill="#1189ad" d="M 472.5,227.5 C 472.833,227.5 473.167,227.5 473.5,227.5C 473.666,232.844 473.499,238.177 473,243.5C 471.311,240.333 469.478,237.333 467.5,234.5C 471.09,237.089 472.09,236.089 470.5,231.5C 471.853,230.476 472.52,229.143 472.5,227.5 Z"/></g>
<g><path style="opacity:1" fill="#129bc5" d="M 189.5,238.5 C 182.5,238.5 175.5,238.5 168.5,238.5C 168.5,257.833 168.5,277.167 168.5,296.5C 175.5,296.5 182.5,296.5 189.5,296.5C 182.352,297.492 175.019,297.825 167.5,297.5C 167.5,277.5 167.5,257.5 167.5,237.5C 175.019,237.175 182.352,237.508 189.5,238.5 Z"/></g>
<g><path style="opacity:1" fill="#2254a3" d="M 189.5,238.5 C 189.5,257.833 189.5,277.167 189.5,296.5C 182.5,296.5 175.5,296.5 168.5,296.5C 168.5,277.167 168.5,257.833 168.5,238.5C 175.5,238.5 182.5,238.5 189.5,238.5 Z"/></g>
<g><path style="opacity:1" fill="#0c3179" d="M 237.5,238.5 C 241.446,238.488 243.113,240.488 242.5,244.5C 242.826,248.884 242.492,253.217 241.5,257.5C 239.833,256.667 238.167,255.833 236.5,255C 226.674,252.574 220.674,256.241 218.5,266C 218.306,271.78 220.639,276.113 225.5,279C 231.296,279.791 236.963,279.291 242.5,277.5C 242.829,283.537 242.496,289.537 241.5,295.5C 240.088,296.806 238.421,297.64 236.5,298C 218.727,302.442 205.727,296.608 197.5,280.5C 197.369,279.761 197.536,279.094 198,278.5C 211.369,265.299 224.535,251.965 237.5,238.5 Z"/></g>
<g><path style="opacity:1" fill="#2354a3" d="M 28.5,239.5 C 35.8333,239.5 43.1667,239.5 50.5,239.5C 50.1717,251.345 50.5051,263.012 51.5,274.5C 52.2026,276.716 53.5359,278.549 55.5,280C 62.5406,282.35 67.374,280.183 70,273.5C 70.4999,262.172 70.6665,250.838 70.5,239.5C 77.5,239.5 84.5,239.5 91.5,239.5C 91.5,251.833 91.5,264.167 91.5,276.5C 90.1131,288.062 83.7797,295.562 72.5,299C 64.5,299.667 56.5,299.667 48.5,299C 39.1775,296.666 32.6775,291.166 29,282.5C 28.5001,268.171 28.3334,253.837 28.5,239.5 Z"/></g>
<g><path style="opacity:1" fill="#0faece" d="M 28.5,239.5 C 35.9818,238.508 43.6484,238.175 51.5,238.5C 51.5,250.5 51.5,262.5 51.5,274.5C 50.5051,263.012 50.1717,251.345 50.5,239.5C 43.1667,239.5 35.8333,239.5 28.5,239.5 Z"/></g>
<g><path style="opacity:1" fill="#1294c1" d="M 70.5,239.5 C 77.6476,238.508 84.9809,238.175 92.5,238.5C 92.8287,251.344 92.4954,264.011 91.5,276.5C 91.5,264.167 91.5,251.833 91.5,239.5C 84.5,239.5 77.5,239.5 70.5,239.5 Z"/></g>
<g><path style="opacity:1" fill="#187db7" d="M 120.5,244.5 C 120.44,245.043 120.107,245.376 119.5,245.5C 118.534,243.604 118.201,241.604 118.5,239.5C 111.833,239.5 105.167,239.5 98.5,239.5C 98.5,258.833 98.5,278.167 98.5,297.5C 97.5029,278.007 97.1696,258.34 97.5,238.5C 104.833,238.5 112.167,238.5 119.5,238.5C 119.205,240.735 119.539,242.735 120.5,244.5 Z"/></g>
<g><path style="opacity:1" fill="#0c367b" d="M 375.5,244.5 C 374.5,248.501 373.5,252.501 372.5,256.5C 371.416,258.319 370.082,259.985 368.5,261.5C 367.504,254.468 369.67,248.468 375,243.5C 375.399,243.728 375.565,244.062 375.5,244.5 Z"/></g>
<g><path style="opacity:1" fill="#0d377c" d="M 470.5,246.5 C 472.086,249.257 473.086,252.257 473.5,255.5C 473.799,257.604 473.466,259.604 472.5,261.5C 470.873,259.235 469.539,256.901 468.5,254.5C 468.122,252.079 467.455,249.746 466.5,247.5C 466.343,246.127 466.51,244.793 467,243.5C 468.039,244.71 469.206,245.71 470.5,246.5 Z"/></g>
<g><path style="opacity:1" fill="#0e73a0" d="M 467.5,242.5 C 469.262,243.262 470.262,244.596 470.5,246.5C 469.206,245.71 468.039,244.71 467,243.5C 466.51,244.793 466.343,246.127 466.5,247.5C 465.861,246.903 465.528,246.07 465.5,245C 465.684,243.624 466.351,242.791 467.5,242.5 Z"/></g>
<g><path style="opacity:1" fill="#09bac9" d="M 274.5,249.5 C 282.368,249.037 286.368,252.703 286.5,260.5C 280.167,260.5 273.833,260.5 267.5,260.5C 267.583,255.319 269.917,251.653 274.5,249.5 Z"/></g>
<g><path style="opacity:1" fill="#0e3a7d" d="M 467.5,255.5 C 469.958,261.84 469.791,268.174 467,274.5C 465.616,270.161 464.45,265.828 463.5,261.5C 463.177,257.774 463.511,254.107 464.5,250.5C 465.952,251.94 466.952,253.606 467.5,255.5 Z"/></g>
<g><path style="opacity:1" fill="#0e6b9b" d="M 378.5,243.5 C 379.888,248.294 380.388,253.294 380,258.5C 378.75,253.58 378.25,248.58 378.5,243.5 Z"/></g>
<g><path style="opacity:1" fill="#0c7ca5" d="M 459.5,256.5 C 460.262,259.152 459.762,261.818 458,264.5C 457.955,261.78 458.455,259.114 459.5,256.5 Z"/></g>
<g><path style="opacity:1" fill="#0ea4bc" d="M 365.5,236.5 C 365.338,238.527 365.505,240.527 366,242.5C 366.448,244.224 367.282,244.891 368.5,244.5C 367.515,246.098 367.349,247.765 368,249.5C 370.425,246.947 372.592,244.28 374.5,241.5C 375.091,242.151 375.757,242.818 376.5,243.5C 376.376,244.107 376.043,244.44 375.5,244.5C 375.565,244.062 375.399,243.728 375,243.5C 369.67,248.468 367.504,254.468 368.5,261.5C 370.082,259.985 371.416,258.319 372.5,256.5C 371.491,261.796 371.324,267.129 372,272.5C 372.308,273.308 372.808,273.975 373.5,274.5C 374.396,271.856 375.229,269.19 376,266.5C 376.667,270.833 376.667,275.167 376,279.5C 372.1,276.36 369.766,272.36 369,267.5C 366.661,262.148 363.828,257.148 360.5,252.5C 361.167,252.5 361.5,252.167 361.5,251.5C 362.736,253.611 364.236,255.611 366,257.5C 366.992,250.898 366.159,244.565 363.5,238.5C 364.167,237.833 364.833,237.167 365.5,236.5 Z"/></g>
<g><path style="opacity:1" fill="#0d367b" d="M 360.5,252.5 C 363.828,257.148 366.661,262.148 369,267.5C 369.766,272.36 372.1,276.36 376,279.5C 376.667,275.167 376.667,270.833 376,266.5C 375.229,269.19 374.396,271.856 373.5,274.5C 372.808,273.975 372.308,273.308 372,272.5C 371.324,267.129 371.491,261.796 372.5,256.5C 373.644,254.9 374.811,253.233 376,251.5C 376.333,255.833 376.667,260.167 377,264.5C 378.558,263.655 379.558,264.321 380,266.5C 381.079,269.063 381.579,271.729 381.5,274.5C 382.777,278.171 383.111,281.838 382.5,285.5C 381.186,284.687 380.019,283.687 379,282.5C 377.644,283.38 376.144,283.714 374.5,283.5C 367.071,279.587 362.571,273.587 361,265.5C 361.654,266.696 362.154,266.696 362.5,265.5C 359.593,260.875 358.427,255.875 359,250.5C 359.717,251.044 360.217,251.711 360.5,252.5 Z"/></g>
<g><path style="opacity:1" fill="#0c397d" d="M 453.5,262.5 C 454.043,262.56 454.376,262.893 454.5,263.5C 452.883,268.278 449.883,271.444 445.5,273C 448.54,269.74 451.206,266.24 453.5,262.5 Z"/></g>
<g><path style="opacity:1" fill="#0c3379" d="M 383.5,273.5 C 387.643,276.081 391.143,279.414 394,283.5C 395.705,285.577 396.872,287.91 397.5,290.5C 387.829,289.148 383.162,283.482 383.5,273.5 Z"/></g>
<g><path style="opacity:1" fill="#0d367b" d="M 462.5,263.5 C 464.875,271.804 463.208,279.137 457.5,285.5C 456.702,283.922 456.202,282.256 456,280.5C 454.24,286.428 450.407,290.095 444.5,291.5C 443.584,291.457 442.917,291.124 442.5,290.5C 446.029,284.136 450.529,278.469 456,273.5C 456.333,274.833 456.667,276.167 457,277.5C 458,273.833 459,270.167 460,266.5C 460.377,265.058 461.21,264.058 462.5,263.5 Z"/></g>
<g><path style="opacity:1" fill="#0c347a" d="M 374.5,283.5 C 380.02,285.593 385.353,288.26 390.5,291.5C 389.643,292.425 388.643,293.092 387.5,293.5C 379.129,293.305 372.462,289.805 367.5,283C 369.847,282.666 372.181,282.833 374.5,283.5 Z"/></g>
<g><path style="opacity:1" fill="#0da7be" d="M 468.5,254.5 C 469.539,256.901 470.873,259.235 472.5,261.5C 473.466,259.604 473.799,257.604 473.5,255.5C 473.833,255.5 474.167,255.5 474.5,255.5C 474.577,256.75 475.244,257.583 476.5,258C 474.099,261.969 472.099,266.135 470.5,270.5C 471.025,271.192 471.692,271.692 472.5,272C 468.275,275.27 464.608,279.103 461.5,283.5C 462.376,284.251 463.376,284.751 464.5,285C 458.119,286.613 452.452,289.447 447.5,293.5C 441.206,292.581 434.873,292.247 428.5,292.5C 433.064,291.784 437.731,291.117 442.5,290.5C 442.917,291.124 443.584,291.457 444.5,291.5C 450.407,290.095 454.24,286.428 456,280.5C 456.202,282.256 456.702,283.922 457.5,285.5C 463.208,279.137 464.875,271.804 462.5,263.5C 463.338,263.158 463.672,262.492 463.5,261.5C 464.45,265.828 465.616,270.161 467,274.5C 469.791,268.174 469.958,261.84 467.5,255.5C 468.167,255.5 468.5,255.167 468.5,254.5 Z"/></g>
<g><path style="opacity:1" fill="#0f9cb8" d="M 383.5,273.5 C 383.162,283.482 387.829,289.148 397.5,290.5C 401.167,291.167 404.833,291.833 408.5,292.5C 401.396,292.251 394.396,292.918 387.5,294.5C 387.5,294.167 387.5,293.833 387.5,293.5C 388.643,293.092 389.643,292.425 390.5,291.5C 385.353,288.26 380.02,285.593 374.5,283.5C 376.144,283.714 377.644,283.38 379,282.5C 380.019,283.687 381.186,284.687 382.5,285.5C 383.111,281.838 382.777,278.171 381.5,274.5C 382.167,274.167 382.833,273.833 383.5,273.5 Z"/></g>
<g><path style="opacity:1" fill="#0e377c" d="M 408.5,292.5 C 415.134,292.677 415.134,293.177 408.5,294C 405.212,297.765 401.045,299.598 396,299.5C 391.758,299.065 387.591,298.231 383.5,297C 382.167,296.333 382.167,295.667 383.5,295C 384.793,294.51 386.127,294.343 387.5,294.5C 394.396,292.918 401.396,292.251 408.5,292.5 Z"/></g>
<g><path style="opacity:1" fill="#0d357b" d="M 428.5,292.5 C 434.873,292.247 441.206,292.581 447.5,293.5C 452.452,289.447 458.119,286.613 464.5,285C 463.376,284.751 462.376,284.251 461.5,283.5C 464.608,279.103 468.275,275.27 472.5,272C 471.692,271.692 471.025,271.192 470.5,270.5C 472.099,266.135 474.099,261.969 476.5,258C 475.244,257.583 474.577,256.75 474.5,255.5C 475.021,248.773 476.854,242.439 480,236.5C 480.851,241.97 480.351,247.303 478.5,252.5C 478.667,252.833 478.833,253.167 479,253.5C 479.915,252.672 480.581,251.672 481,250.5C 481.029,257.411 478.862,263.578 474.5,269C 476.047,269.333 477.38,268.833 478.5,267.5C 478.833,267.833 479.167,268.167 479.5,268.5C 477.135,274.697 473.135,279.53 467.5,283C 468.899,283.595 470.232,283.428 471.5,282.5C 472.521,283.002 472.688,283.668 472,284.5C 469.833,286.667 467.667,288.833 465.5,291C 462.5,292.167 459.5,293.333 456.5,294.5C 455.614,295.325 455.281,296.325 455.5,297.5C 448.961,299.372 442.294,299.872 435.5,299C 431.965,294.61 427.632,293.61 422.5,296C 426.783,298.615 430.783,301.615 434.5,305C 434,305.5 433.5,306 433,306.5C 428.998,303.001 424.665,300.001 420,297.5C 414.84,299.746 410.174,302.746 406,306.5C 405.5,306 405,305.5 404.5,305C 407.954,301.111 411.954,297.944 416.5,295.5C 415.975,294.808 415.308,294.308 414.5,294C 416.179,293.605 417.845,293.772 419.5,294.5C 422.42,293.414 425.42,292.748 428.5,292.5 Z"/></g>
<g><path style="opacity:1" fill="#03b2bf" d="M -0.5,381.5 C 170.167,381.5 340.833,381.5 511.5,381.5C 511.5,384.833 511.5,388.167 511.5,391.5C 506.014,412.485 492.681,425.652 471.5,431C 327.5,431.667 183.5,431.667 39.5,431C 18.319,425.652 4.98567,412.485 -0.5,391.5C -0.5,388.167 -0.5,384.833 -0.5,381.5 Z"/></g>
</svg>
