<?xml version="1.0" encoding="UTF-8"?>
<!DOCTYPE svg PUBLIC "-//W3C//DTD SVG 1.1//EN" "http://www.w3.org/Graphics/SVG/1.1/DTD/svg11.dtd">
<svg xmlns="http://www.w3.org/2000/svg" version="1.1" width="189px" height="75px" style="shape-rendering:geometricPrecision; text-rendering:geometricPrecision; image-rendering:optimizeQuality; fill-rule:evenodd; clip-rule:evenodd" xmlns:xlink="http://www.w3.org/1999/xlink">
<g><path style="opacity:1" fill="#fefdfc" d="M -0.5,-0.5 C 62.5,-0.5 125.5,-0.5 188.5,-0.5C 188.5,24.5 188.5,49.5 188.5,74.5C 125.5,74.5 62.5,74.5 -0.5,74.5C -0.5,49.5 -0.5,24.5 -0.5,-0.5 Z"/></g>
<g><path style="opacity:1" fill="#852428" d="M 129.5,14.5 C 133.485,14.6294 134.818,16.4628 133.5,20C 131.866,20.4935 130.199,20.6602 128.5,20.5C 128.325,18.3792 128.659,16.3792 129.5,14.5 Z"/></g>
<g><path style="opacity:1" fill="#9a484a" d="M 113.5,24.5 C 114.5,24.5 115.5,24.5 116.5,24.5C 116.5,25.8333 116.5,27.1667 116.5,28.5C 115.5,28.5 114.5,28.5 113.5,28.5C 113.5,27.1667 113.5,25.8333 113.5,24.5 Z"/></g>
<g><path style="opacity:1" fill="#f1813c" d="M 123.5,24.5 C 127.161,24.3501 128.161,25.8501 126.5,29C 122.707,29.4866 121.707,27.9866 123.5,24.5 Z"/></g>
<g><path style="opacity:1" fill="#f9d1b9" d="M 158.5,31.5 C 152.441,31.2539 146.441,31.5872 140.5,32.5C 140.5,32.1667 140.5,31.8333 140.5,31.5C 146.599,30.1943 152.599,30.1943 158.5,31.5 Z"/></g>
<g><path style="opacity:1" fill="#852428" d="M 22.5,32.5 C 25.4504,34.911 26.1171,37.911 24.5,41.5C 25.1925,42.5178 25.8592,43.5178 26.5,44.5C 26.5,46.1667 26.5,47.8333 26.5,49.5C 26.1667,51.8333 24.8333,53.1667 22.5,53.5C 18.8333,53.5 15.1667,53.5 11.5,53.5C 11.5,46.5 11.5,39.5 11.5,32.5C 15.1667,32.5 18.8333,32.5 22.5,32.5 Z"/></g>
<g><path style="opacity:1" fill="#f1813c" d="M 109.5,31.5 C 121.274,29.7788 126.774,34.7788 126,46.5C 123.189,52.8229 118.355,55.3229 111.5,54C 105.456,50.5514 103.29,45.3848 105,38.5C 105.904,35.7666 107.404,33.4333 109.5,31.5 Z"/></g>
<g><path style="opacity:1" fill="#f17e37" d="M 158.5,31.5 C 158.5,32.5 158.5,33.5 158.5,34.5C 156.5,34.5 154.5,34.5 152.5,34.5C 151.833,40.6792 151.167,47.0125 150.5,53.5C 149.833,47.0125 149.167,40.6792 148.5,34.5C 146.833,34.5 145.167,34.5 143.5,34.5C 144.41,39.3336 143.077,43.3336 139.5,46.5C 140.921,49.0094 142.588,51.3428 144.5,53.5C 143.167,54.8333 141.833,54.8333 140.5,53.5C 138.525,50.1951 136.191,47.1951 133.5,44.5C 133.5,43.8333 133.5,43.1667 133.5,42.5C 140.021,43.6599 142.021,41.3265 139.5,35.5C 137.052,34.5269 134.385,34.1936 131.5,34.5C 131.5,40.8333 131.5,47.1667 131.5,53.5C 129.539,46.9131 128.872,39.9131 129.5,32.5C 133.167,32.5 136.833,32.5 140.5,32.5C 146.441,31.5872 152.441,31.2539 158.5,31.5 Z"/></g>
<g><path style="opacity:1" fill="#a1565a" d="M 22.5,32.5 C 18.8333,32.5 15.1667,32.5 11.5,32.5C 11.5,39.5 11.5,46.5 11.5,53.5C 15.1667,53.5 18.8333,53.5 22.5,53.5C 18.7016,54.4834 14.7016,54.8168 10.5,54.5C 10.5,46.8333 10.5,39.1667 10.5,31.5C 14.7016,31.1832 18.7016,31.5166 22.5,32.5 Z"/></g>
<g><path style="opacity:1" fill="#c79b9e" d="M 63.5,31.5 C 63.5,39.1667 63.5,46.8333 63.5,54.5C 62.8333,54.5 62.1667,54.5 61.5,54.5C 61.5,54.1667 61.5,53.8333 61.5,53.5C 62.1667,46.1667 62.8333,38.8333 63.5,31.5 Z"/></g>
<g><path style="opacity:1" fill="#f39e69" d="M 140.5,31.5 C 140.5,31.8333 140.5,32.1667 140.5,32.5C 136.833,32.5 133.167,32.5 129.5,32.5C 128.872,39.9131 129.539,46.9131 131.5,53.5C 131.5,53.8333 131.5,54.1667 131.5,54.5C 130.5,54.5 129.5,54.5 128.5,54.5C 128.5,46.8333 128.5,39.1667 128.5,31.5C 132.5,31.5 136.5,31.5 140.5,31.5 Z"/></g>
<g><path style="opacity:1" fill="#f39a62" d="M 173.5,32.5 C 173.5,32.1667 173.5,31.8333 173.5,31.5C 174.5,31.5 175.5,31.5 176.5,31.5C 176.5,39.1667 176.5,46.8333 176.5,54.5C 175.209,54.7373 174.209,54.404 173.5,53.5C 174.821,50.4018 175.488,46.9018 175.5,43C 175.488,39.0982 174.821,35.5982 173.5,32.5 Z"/></g>
<g><path style="opacity:1" fill="#faf7f7" d="M 21.5,35.5 C 22.8333,36.8333 22.8333,38.1667 21.5,39.5C 19.1667,39.5 16.8333,39.5 14.5,39.5C 14.5,38.1667 14.5,36.8333 14.5,35.5C 16.8333,35.5 19.1667,35.5 21.5,35.5 Z"/></g>
<g><path style="opacity:1" fill="#fad5c0" d="M 76.5,31.5 C 77.9187,30.5489 79.5853,30.2155 81.5,30.5C 82.0078,34.1974 82.6745,37.8641 83.5,41.5C 81.5902,38.5475 80.5902,35.2142 80.5,31.5C 79.1667,31.5 77.8333,31.5 76.5,31.5 Z"/></g>
<g><path style="opacity:1" fill="#fdf4f0" d="M 111.5,34.5 C 120.161,33.3293 123.994,36.9959 123,45.5C 119.433,52.013 114.766,53.013 109,48.5C 106.365,43.0867 107.198,38.42 111.5,34.5 Z"/></g>
<g><path style="opacity:1" fill="#fef8f4" d="M 139.5,35.5 C 142.021,41.3265 140.021,43.6599 133.5,42.5C 132.532,40.3926 132.198,38.0593 132.5,35.5C 134.833,35.5 137.167,35.5 139.5,35.5 Z"/></g>
<g><path style="opacity:1" fill="#f8cfb5" d="M 158.5,31.5 C 159.167,31.5 159.833,31.5 160.5,31.5C 160.5,39.1667 160.5,46.8333 160.5,54.5C 159.833,47.8333 159.167,41.1667 158.5,34.5C 158.5,33.5 158.5,32.5 158.5,31.5 Z"/></g>
<g><path style="opacity:1" fill="#cea8aa" d="M 21.5,35.5 C 19.1667,35.5 16.8333,35.5 14.5,35.5C 14.5,36.8333 14.5,38.1667 14.5,39.5C 16.8333,39.5 19.1667,39.5 21.5,39.5C 19.0521,40.4731 16.3854,40.8064 13.5,40.5C 13.5,38.5 13.5,36.5 13.5,34.5C 16.3854,34.1936 19.0521,34.5269 21.5,35.5 Z"/></g>
<g><path style="opacity:1" fill="#f7c2a2" d="M 139.5,35.5 C 137.167,35.5 134.833,35.5 132.5,35.5C 132.198,38.0593 132.532,40.3926 133.5,42.5C 133.5,43.1667 133.5,43.8333 133.5,44.5C 132.833,47.8333 132.167,51.1667 131.5,54.5C 131.5,54.1667 131.5,53.8333 131.5,53.5C 131.5,47.1667 131.5,40.8333 131.5,34.5C 134.385,34.1936 137.052,34.5269 139.5,35.5 Z"/></g>
<g><path style="opacity:1" fill="#f5b085" d="M 148.5,34.5 C 149.167,40.6792 149.833,47.0125 150.5,53.5C 151.167,47.0125 151.833,40.6792 152.5,34.5C 152.5,41.1667 152.5,47.8333 152.5,54.5C 151.167,54.5 149.833,54.5 148.5,54.5C 148.5,47.8333 148.5,41.1667 148.5,34.5 Z"/></g>
<g><path style="opacity:1" fill="#923b3e" d="M 115.5,36.5 C 116.5,36.5 117.5,36.5 118.5,36.5C 118.5,37.5 118.5,38.5 118.5,39.5C 117.5,39.5 116.5,39.5 115.5,39.5C 115.5,38.5 115.5,37.5 115.5,36.5 Z"/></g>
<g><path style="opacity:1" fill="#f7c6a7" d="M 163.5,31.5 C 164.477,34.2869 164.81,37.2869 164.5,40.5C 167.167,40.5 169.833,40.5 172.5,40.5C 172.19,37.2869 172.523,34.2869 173.5,31.5C 173.5,31.8333 173.5,32.1667 173.5,32.5C 173.5,35.5 173.5,38.5 173.5,41.5C 170.167,41.5 166.833,41.5 163.5,41.5C 163.5,38.1667 163.5,34.8333 163.5,31.5 Z"/></g>
<g><path style="opacity:1" fill="#f17f39" d="M 160.5,31.5 C 161.5,31.5 162.5,31.5 163.5,31.5C 163.5,34.8333 163.5,38.1667 163.5,41.5C 166.833,41.5 170.167,41.5 173.5,41.5C 173.5,38.5 173.5,35.5 173.5,32.5C 174.821,35.5982 175.488,39.0982 175.5,43C 175.488,46.9018 174.821,50.4018 173.5,53.5C 173.5,50.5 173.5,47.5 173.5,44.5C 170.167,44.5 166.833,44.5 163.5,44.5C 163.5,47.8333 163.5,51.1667 163.5,54.5C 162.5,54.5 161.5,54.5 160.5,54.5C 160.5,46.8333 160.5,39.1667 160.5,31.5 Z"/></g>
<g><path style="opacity:1" fill="#88292c" d="M 29.5,31.5 C 33.8333,31.5 38.1667,31.5 42.5,31.5C 42.5,32.5 42.5,33.5 42.5,34.5C 38.8333,34.5 35.1667,34.5 31.5,34.5C 31.5,36.8333 31.5,39.1667 31.5,41.5C 35.1667,41.5 38.8333,41.5 42.5,41.5C 42.5,42.5 42.5,43.5 42.5,44.5C 39.1667,44.5 35.8333,44.5 32.5,44.5C 31.5318,46.6074 31.1984,48.9407 31.5,51.5C 35.7016,51.8168 39.7016,51.4834 43.5,50.5C 45.326,43.5303 48.1593,37.197 52,31.5C 52.772,31.6448 53.4387,31.9781 54,32.5C 56.6058,39.4855 59.1058,46.4855 61.5,53.5C 61.5,53.8333 61.5,54.1667 61.5,54.5C 60.325,54.719 59.325,54.3857 58.5,53.5C 56.8824,47.8864 53.2158,46.2197 47.5,48.5C 46.5435,50.0754 45.8769,51.742 45.5,53.5C 40.1667,53.5 34.8333,53.5 29.5,53.5C 29.5,46.1667 29.5,38.8333 29.5,31.5 Z"/></g>
<g><path style="opacity:1" fill="#ebdbdc" d="M 51.5,37.5 C 53.2927,39.4261 54.2927,41.7594 54.5,44.5C 52.8333,44.5 51.1667,44.5 49.5,44.5C 49.767,42.0347 50.4336,39.7014 51.5,37.5 Z"/></g>
<g><path style="opacity:1" fill="#caa0a3" d="M 42.5,34.5 C 39.3752,35.4794 36.0419,35.8128 32.5,35.5C 32.5,37.1667 32.5,38.8333 32.5,40.5C 36.0419,40.1872 39.3752,40.5206 42.5,41.5C 38.8333,41.5 35.1667,41.5 31.5,41.5C 31.5,39.1667 31.5,36.8333 31.5,34.5C 35.1667,34.5 38.8333,34.5 42.5,34.5 Z"/></g>
<g><path style="opacity:1" fill="#f7f1f2" d="M 22.5,44.5 C 25.1667,46.5 25.1667,48.5 22.5,50.5C 19.8333,50.5 17.1667,50.5 14.5,50.5C 14.5,48.5 14.5,46.5 14.5,44.5C 17.1667,44.5 19.8333,44.5 22.5,44.5 Z"/></g>
<g><path style="opacity:1" fill="#c39497" d="M 22.5,44.5 C 19.8333,44.5 17.1667,44.5 14.5,44.5C 14.5,46.5 14.5,48.5 14.5,50.5C 17.1667,50.5 19.8333,50.5 22.5,50.5C 19.7131,51.4767 16.7131,51.81 13.5,51.5C 13.5,48.8333 13.5,46.1667 13.5,43.5C 16.7131,43.19 19.7131,43.5233 22.5,44.5 Z"/></g>
<g><path style="opacity:1" fill="#892b2d" d="M 63.5,31.5 C 64.675,31.281 65.675,31.6143 66.5,32.5C 69.4192,37.3397 72.5859,42.0064 76,46.5C 76.499,42.1794 76.6657,37.8461 76.5,33.5C 78.0719,36.2154 79.0719,39.2154 79.5,42.5C 79.5,46.1667 79.5,49.8333 79.5,53.5C 78.5,53.5 77.5,53.5 76.5,53.5C 73.5546,48.7144 70.3879,44.0477 67,39.5C 66.5007,44.4889 66.3341,49.4889 66.5,54.5C 65.5,54.5 64.5,54.5 63.5,54.5C 63.5,46.8333 63.5,39.1667 63.5,31.5 Z"/></g>
<g><path style="opacity:1" fill="#cfa6a5" d="M 79.5,42.5 C 80.6737,43.5137 81.3404,44.847 81.5,46.5C 80.5269,48.9479 80.1936,51.6146 80.5,54.5C 78.901,54.7678 77.5676,54.4345 76.5,53.5C 77.5,53.5 78.5,53.5 79.5,53.5C 79.5,49.8333 79.5,46.1667 79.5,42.5 Z"/></g>
<g><path style="opacity:1" fill="#f28544" d="M 76.5,31.5 C 77.8333,31.5 79.1667,31.5 80.5,31.5C 80.5902,35.2142 81.5902,38.5475 83.5,41.5C 83.8923,43.1789 84.3923,44.8455 85,46.5C 86.2985,43.9938 87.2985,41.3272 88,38.5C 89.3561,37.6198 90.8561,37.2865 92.5,37.5C 92.366,39.2915 92.6993,40.9582 93.5,42.5C 93.5,43.8333 93.5,45.1667 93.5,46.5C 96.142,46.5123 97.4754,45.179 97.5,42.5C 97.933,39.8344 98.433,37.1677 99,34.5C 99.9078,32.5614 101.408,31.5614 103.5,31.5C 101.772,38.9773 99.6058,46.3106 97,53.5C 95.9887,54.3366 94.8221,54.67 93.5,54.5C 93.5,53.5 93.5,52.5 93.5,51.5C 91.9321,42.8447 89.9321,42.5114 87.5,50.5C 86.9654,54.3344 85.4654,55.001 83,52.5C 82.6847,50.4144 82.1847,48.4144 81.5,46.5C 81.3404,44.847 80.6737,43.5137 79.5,42.5C 79.0719,39.2154 78.0719,36.2154 76.5,33.5C 76.5,32.8333 76.5,32.1667 76.5,31.5 Z"/></g>
<g><path style="opacity:1" fill="#facbaf" d="M 93.5,51.5 C 92.1497,50.5169 91.1497,49.1836 90.5,47.5C 89.7124,48.7701 88.7124,49.7701 87.5,50.5C 89.9321,42.5114 91.9321,42.8447 93.5,51.5 Z"/></g>
<g><path style="opacity:1" fill="#f7b186" d="M 93.5,42.5 C 94.2216,42.9175 94.7216,43.5842 95,44.5C 95.7083,43.6195 96.5416,42.9528 97.5,42.5C 97.4754,45.179 96.142,46.5123 93.5,46.5C 93.5,45.1667 93.5,43.8333 93.5,42.5 Z"/></g>
<g><path style="opacity:1" fill="#ae6d70" d="M 29.5,31.5 C 29.5,38.8333 29.5,46.1667 29.5,53.5C 34.8333,53.5 40.1667,53.5 45.5,53.5C 40.0247,54.4889 34.358,54.8222 28.5,54.5C 28.9227,52.2188 28.256,50.5521 26.5,49.5C 26.5,47.8333 26.5,46.1667 26.5,44.5C 27.1174,44.6107 27.6174,44.944 28,45.5C 28.1745,40.6486 28.6745,35.9819 29.5,31.5 Z"/></g>
<g><path style="opacity:1" fill="#bd8a8c" d="M 32.5,44.5 C 32.5,46.5 32.5,48.5 32.5,50.5C 36.1667,50.5 39.8333,50.5 43.5,50.5C 39.7016,51.4834 35.7016,51.8168 31.5,51.5C 31.1984,48.9407 31.5318,46.6074 32.5,44.5 Z"/></g>
</svg>
