<?xml version="1.0" encoding="UTF-8"?>
<!DOCTYPE svg PUBLIC "-//W3C//DTD SVG 1.1//EN" "http://www.w3.org/Graphics/SVG/1.1/DTD/svg11.dtd">
<svg xmlns="http://www.w3.org/2000/svg" version="1.1" width="1208px" height="755px" style="shape-rendering:geometricPrecision; text-rendering:geometricPrecision; image-rendering:optimizeQuality; fill-rule:evenodd; clip-rule:evenodd" xmlns:xlink="http://www.w3.org/1999/xlink">
<g><path style="opacity:0.928" fill="#f16f20" d="M 674.5,24.5 C 681.361,24.3056 688.194,24.6389 695,25.5C 706.038,29.3726 717.538,31.8726 729.5,33C 728.366,34.016 728.699,34.6827 730.5,35C 740.907,36.7948 750.573,38.4615 759.5,40C 758.366,41.016 758.699,41.6827 760.5,42C 766.632,43.7182 772.965,44.7182 779.5,45C 779.167,45.3333 778.833,45.6667 778.5,46C 782.211,46.1747 785.878,46.6747 789.5,47.5C 789.709,48.086 790.043,48.586 790.5,49C 800.846,50.3323 810.846,52.6657 820.5,56C 827.167,57 833.833,58 840.5,59C 839.366,60.016 839.699,60.6827 841.5,61C 851.371,62.9047 861.371,64.5714 871.5,66C 870.167,66.6667 870.167,67.3333 871.5,68C 882.307,69.5657 892.307,71.399 901.5,73.5C 901.709,74.086 902.043,74.586 902.5,75C 912.846,76.3323 922.846,78.6657 932.5,82C 939.13,83.2357 945.797,84.2357 952.5,85C 951.366,86.016 951.699,86.6827 953.5,87C 963.112,88.6214 972.779,90.4547 982.5,92.5C 982.709,93.086 983.043,93.586 983.5,94C 993.458,95.9249 1003.46,97.5915 1013.5,99C 1012.17,99.6667 1012.17,100.333 1013.5,101C 1020.13,102.236 1026.8,103.236 1033.5,104C 1033.17,104.333 1032.83,104.667 1032.5,105C 1042.64,107.588 1052.97,109.588 1063.5,111C 1062.37,112.016 1062.7,112.683 1064.5,113C 1084.14,117.818 1104.14,121.818 1124.5,125C 1123.17,125.667 1123.17,126.333 1124.5,127C 1131.13,128.236 1137.8,129.236 1144.5,130C 1144.17,130.333 1143.83,130.667 1143.5,131C 1146.79,131.882 1150.12,132.548 1153.5,133C 1155.65,135.555 1155.98,138.388 1154.5,141.5C 1152.17,145.167 1149.17,148.167 1145.5,150.5C 1136.26,162.267 1125.76,173.6 1114,184.5C 1111.84,186.48 1110.34,188.813 1109.5,191.5C 1107.01,191.976 1105.01,193.31 1103.5,195.5C 1096.94,204.199 1089.94,211.699 1082.5,218C 1082.83,218.333 1083.17,218.667 1083.5,219C 1080.57,219.761 1078.9,221.594 1078.5,224.5C 1077.45,224.351 1076.45,224.517 1075.5,225C 1070.28,231.808 1064.61,238.141 1058.5,244C 1058.83,244.333 1059.17,244.667 1059.5,245C 1053.23,250.135 1047.23,255.635 1041.5,261.5C 1039.35,263.958 1037.68,266.625 1036.5,269.5C 1034.39,269.679 1032.73,270.679 1031.5,272.5C 1023.85,282.153 1015.51,291.153 1006.5,299.5C 1005.61,300.325 1005.28,301.325 1005.5,302.5C 1004.45,302.351 1003.45,302.517 1002.5,303C 997.88,309.62 992.547,315.62 986.5,321C 984.866,321.494 983.199,321.66 981.5,321.5C 979.346,310.257 977.512,298.924 976,287.5C 975.667,287.833 975.333,288.167 975,288.5C 973.726,275.755 972.226,263.088 970.5,250.5C 959.756,242.351 948.423,234.017 936.5,225.5C 931.624,224.962 929.29,222.295 929.5,217.5C 938.206,214.542 946.873,211.709 955.5,209C 955.167,208.667 954.833,208.333 954.5,208C 958.876,207.178 963.209,206.178 967.5,205C 968.833,204.333 968.833,203.667 967.5,203C 973.945,201.514 980.278,199.848 986.5,198C 993.242,194.97 1000.24,192.303 1007.5,190C 1007.17,189.667 1006.83,189.333 1006.5,189C 1010.88,188.178 1015.21,187.178 1019.5,186C 1019.96,185.586 1020.29,185.086 1020.5,184.5C 1027.22,182.46 1033.89,180.294 1040.5,178C 1040.17,177.667 1039.83,177.333 1039.5,177C 1045.89,175.538 1052.22,173.871 1058.5,172C 1059.83,171.333 1059.83,170.667 1058.5,170C 1064.93,168.688 1071.26,167.021 1077.5,165C 1077.96,164.586 1078.29,164.086 1078.5,163.5C 1086.26,161.734 1093.6,159.234 1100.5,156C 1098.17,155.333 1095.83,155.333 1093.5,156C 1088.62,157.196 1083.62,158.196 1078.5,159C 1078.83,159.333 1079.17,159.667 1079.5,160C 1070.49,160.906 1061.49,161.906 1052.5,163C 1051.17,163.667 1051.17,164.333 1052.5,165C 1047.5,165.333 1042.5,165.667 1037.5,166C 1037.83,166.333 1038.17,166.667 1038.5,167C 1033.83,167.333 1029.17,167.667 1024.5,168C 1020.35,169.269 1016.02,169.935 1011.5,170C 1011.04,170.414 1010.71,170.914 1010.5,171.5C 996.314,173.388 982.314,175.555 968.5,178C 968.833,178.333 969.167,178.667 969.5,179C 955.298,180.393 941.298,182.393 927.5,185C 927.833,185.333 928.167,185.667 928.5,186C 919.319,186.295 910.319,187.295 901.5,189C 901.043,189.414 900.709,189.914 900.5,190.5C 896.5,191.833 892.5,191.833 888.5,190.5C 882.651,185.752 877.318,181.252 872.5,177C 869.588,175.218 866.588,173.718 863.5,172.5C 863.5,171.5 863.5,170.5 863.5,169.5C 860.5,168.167 857.5,166.833 854.5,165.5C 854.5,164.5 854.5,163.5 854.5,162.5C 852.263,161.551 849.929,160.884 847.5,160.5C 847.719,159.325 847.386,158.325 846.5,157.5C 839.214,152.442 832.547,147.442 826.5,142.5C 824.488,140.659 822.155,139.659 819.5,139.5C 819.719,138.325 819.386,137.325 818.5,136.5C 809.575,130.545 801.575,124.378 794.5,118C 791.588,116.218 788.588,114.718 785.5,113.5C 785.5,112.5 785.5,111.5 785.5,110.5C 780.406,107.112 775.072,103.945 769.5,101C 770.833,100.333 770.833,99.6667 769.5,99C 763.352,94.7015 757.019,90.7015 750.5,87C 751.833,86.3333 751.833,85.6667 750.5,85C 745.322,81.8434 740.322,78.5101 735.5,75C 736.833,74.3333 736.833,73.6667 735.5,73C 732.588,71.2179 729.588,69.7179 726.5,68.5C 726.5,67.5 726.5,66.5 726.5,65.5C 723.086,64.2715 719.753,62.7715 716.5,61C 717.833,60.3333 717.833,59.6667 716.5,59C 713.609,57.2079 710.609,55.7079 707.5,54.5C 707.5,53.5 707.5,52.5 707.5,51.5C 702.406,48.112 697.072,44.9454 691.5,42C 691.833,41.6667 692.167,41.3333 692.5,41C 689.498,38.5047 686.165,36.6714 682.5,35.5C 682.5,34.5 682.5,33.5 682.5,32.5C 679.864,31.9654 677.697,30.6321 676,28.5C 675.667,28.8333 675.333,29.1667 675,29.5C 674.506,27.8659 674.34,26.1992 674.5,24.5 Z M 1104.5,153.5 C 1108.22,153.793 1108.05,154.459 1104,155.5C 1103.5,155.333 1103,155.167 1102.5,155C 1103.42,154.722 1104.08,154.222 1104.5,153.5 Z"/></g>
<g><path style="opacity:0.936" fill="#0081c9" d="M 412.5,262.5 C 423.993,261.341 435.659,261.174 447.5,262C 445.122,262.974 445.456,263.641 448.5,264C 457.277,264.347 465.944,265.514 474.5,267.5C 474.709,268.086 475.043,268.586 475.5,269C 481.474,270.533 487.474,272.199 493.5,274C 493.167,274.333 492.833,274.667 492.5,275C 501.769,279.774 510.103,286.607 517.5,295.5C 518.799,297.758 519.799,300.092 520.5,302.5C 521.5,302.5 522.5,302.5 523.5,302.5C 523.666,308.003 525.166,313.003 528,317.5C 528.667,326.167 528.667,334.833 528,343.5C 527.085,344.328 526.419,345.328 526,346.5C 525.762,353.934 524.929,361.268 523.5,368.5C 521.289,368.967 519.289,369.967 517.5,371.5C 498.509,372.666 479.509,372.833 460.5,372C 458.841,370.159 456.841,368.992 454.5,368.5C 454.832,357.48 454.499,346.48 453.5,335.5C 452.184,332.348 449.85,330.515 446.5,330C 446.833,329.667 447.167,329.333 447.5,329C 444.349,329.012 441.682,328.012 439.5,326C 430.5,325.333 421.5,325.333 412.5,326C 411.167,326.667 411.167,327.333 412.5,328C 406.866,328.52 401.866,330.52 397.5,334C 397.833,334.333 398.167,334.667 398.5,335C 397.552,335.483 396.552,335.649 395.5,335.5C 394.08,338.261 393.413,341.261 393.5,344.5C 392.5,344.5 391.5,344.5 390.5,344.5C 385.648,380.328 381.815,416.995 379,454.5C 378.667,454.167 378.333,453.833 378,453.5C 376.8,463.135 375.633,472.802 374.5,482.5C 374.048,487.898 375.715,492.398 379.5,496C 379.167,496.333 378.833,496.667 378.5,497C 383.422,500.967 389.089,502.967 395.5,503C 394.167,503.667 394.167,504.333 395.5,505C 401.5,505.667 407.5,505.667 413.5,505C 413.957,504.586 414.291,504.086 414.5,503.5C 420.441,502.591 426.107,500.924 431.5,498.5C 433.434,495.208 435.434,491.875 437.5,488.5C 439.567,480.972 440.9,473.305 441.5,465.5C 443.053,463.735 443.386,461.902 442.5,460C 443.627,458.247 444.627,456.413 445.5,454.5C 446.325,453.614 447.325,453.281 448.5,453.5C 448.5,452.5 448.5,451.5 448.5,450.5C 468.5,450.5 488.5,450.5 508.5,450.5C 508.5,451.5 508.5,452.5 508.5,453.5C 509.5,453.5 510.5,453.5 511.5,453.5C 511.44,456.021 512.106,458.354 513.5,460.5C 513.281,461.938 512.781,463.271 512,464.5C 511.757,477.67 510.757,490.67 509,503.5C 508.667,503.167 508.333,502.833 508,502.5C 505.146,513.829 500.646,523.829 494.5,532.5C 489.065,538.375 483.065,543.542 476.5,548C 475.167,548.667 475.167,549.333 476.5,550C 472.183,551.824 467.85,553.491 463.5,555C 462.167,555.667 462.167,556.333 463.5,557C 453.597,560.093 443.597,562.76 433.5,565C 410.5,565.667 387.5,565.667 364.5,565C 357.215,562.943 349.881,560.776 342.5,558.5C 338.188,555.669 333.521,553.502 328.5,552C 328.833,551.667 329.167,551.333 329.5,551C 328.207,550.51 326.873,550.343 325.5,550.5C 325.5,549.5 325.5,548.5 325.5,547.5C 322.101,546.241 319.435,544.908 317.5,543.5C 313.581,538.272 309.748,532.939 306,527.5C 304.397,523.877 303.064,520.211 302,516.5C 301.333,504.167 301.333,491.833 302,479.5C 303.27,464.77 304.604,450.103 306,435.5C 306.915,434.672 307.581,433.672 308,432.5C 308.083,426.058 308.749,419.725 310,413.5C 310.333,406.833 310.667,400.167 311,393.5C 311.333,393.833 311.667,394.167 312,394.5C 314.624,375.182 316.624,355.849 318,336.5C 319.016,337.634 319.683,337.301 320,335.5C 320.764,326.659 322.431,317.993 325,309.5C 325.667,310.833 326.333,310.833 327,309.5C 329.92,301.499 335.087,294.666 342.5,289C 342.167,288.667 341.833,288.333 341.5,288C 344.5,286.333 347.5,284.667 350.5,283C 351.833,282.333 351.833,281.667 350.5,281C 356.685,278.444 362.685,275.611 368.5,272.5C 372.768,271.059 377.102,269.893 381.5,269C 383.301,268.683 383.634,268.016 382.5,267C 393.181,265.591 403.848,264.258 414.5,263C 413.906,262.536 413.239,262.369 412.5,262.5 Z"/></g>
<g><path style="opacity:0.934" fill="#0081c9" d="M 110.5,266.5 C 174.837,266.167 239.17,266.5 303.5,267.5C 304.36,269.931 306.027,271.264 308.5,271.5C 309.087,278.725 308.253,285.725 306,292.5C 305.913,302.008 304.746,311.341 302.5,320.5C 301.36,323.316 299.36,324.982 296.5,325.5C 296.5,326.5 296.5,327.5 296.5,328.5C 276.1,327.852 255.933,328.519 236,330.5C 233.444,350.863 231.444,371.53 230,392.5C 229.667,392.167 229.333,391.833 229,391.5C 226.411,411.387 224.411,431.387 223,451.5C 222.667,451.167 222.333,450.833 222,450.5C 219.411,470.387 217.411,490.387 216,510.5C 215.667,510.167 215.333,509.833 215,509.5C 214.667,510.5 214.333,511.5 214,512.5C 213.147,524.858 211.98,537.191 210.5,549.5C 208.947,551.265 208.614,553.098 209.5,555C 207.945,556.583 206.778,558.416 206,560.5C 204.155,561.05 202.655,562.05 201.5,563.5C 182.175,564.666 162.842,564.833 143.5,564C 143.833,563.667 144.167,563.333 144.5,563C 141.489,561.989 139.489,559.989 138.5,557C 137.82,551.372 137.82,545.705 138.5,540C 140.469,524.209 141.969,508.375 143,492.5C 144.016,493.634 144.683,493.301 145,491.5C 146.736,472.173 148.403,452.839 150,433.5C 151.016,434.634 151.683,434.301 152,432.5C 153.126,419.176 154.126,405.843 155,392.5C 155.333,393.167 155.667,393.833 156,394.5C 158.627,374.173 160.627,353.84 162,333.5C 162.333,333.833 162.667,334.167 163,334.5C 163.346,332.782 163.846,331.115 164.5,329.5C 144.5,328.833 124.5,328.167 104.5,327.5C 104.167,326.5 103.5,325.833 102.5,325.5C 101.323,309.159 101.49,292.826 103,276.5C 103.333,277.167 103.667,277.833 104,278.5C 104.681,276.105 105.515,273.772 106.5,271.5C 108.451,270.226 109.785,268.56 110.5,266.5 Z"/></g>
<g><path style="opacity:0.934" fill="#0081c9" d="M 635.5,266.5 C 656.169,266.333 676.836,266.5 697.5,267C 697.167,267.333 696.833,267.667 696.5,268C 698.517,268.674 700.183,269.841 701.5,271.5C 702.115,274.436 703.282,277.103 705,279.5C 708.736,302.553 712.07,325.886 715,349.5C 715.317,351.301 715.984,351.634 717,350.5C 717.333,355.5 717.667,360.5 718,365.5C 722.845,388.727 726.512,412.393 729,436.5C 729.359,439.544 730.026,439.878 731,437.5C 731.671,449.946 733.505,462.112 736.5,474C 734.701,477.237 735.201,480.07 738,482.5C 739.478,491.709 740.478,501.042 741,510.5C 741.414,510.957 741.914,511.291 742.5,511.5C 743.328,516.132 743.828,520.798 744,525.5C 744.333,525.167 744.667,524.833 745,524.5C 745.386,533.095 746.22,541.595 747.5,550C 747.167,553.167 746.833,556.333 746.5,559.5C 744.76,560.836 743.093,562.17 741.5,563.5C 722.5,564.833 703.5,564.833 684.5,563.5C 680.167,561.833 677.167,558.833 675.5,554.5C 674.043,544.137 672.543,533.804 671,523.5C 670.667,524.167 670.333,524.833 670,525.5C 669.607,520.131 669.441,514.965 669.5,510C 647.5,509.333 625.5,509.333 603.5,510C 602.163,512.605 601.496,515.771 601.5,519.5C 600.5,519.5 599.5,519.5 598.5,519.5C 597.142,525.508 595.642,531.508 594,537.5C 592.984,536.366 592.317,536.699 592,538.5C 590.177,543.828 588.677,549.161 587.5,554.5C 586.5,554.5 585.5,554.5 584.5,554.5C 584.579,555.93 584.246,557.264 583.5,558.5C 581.228,560.651 578.561,562.151 575.5,563C 575.833,563.333 576.167,563.667 576.5,564C 558.167,564.667 539.833,564.667 521.5,564C 521.833,563.667 522.167,563.333 522.5,563C 518.591,561.759 516.591,559.092 516.5,555C 517.627,551.229 518.294,547.395 518.5,543.5C 519.5,543.5 520.5,543.5 521.5,543.5C 521.67,542.178 521.337,541.011 520.5,540C 521.025,539.308 521.692,538.808 522.5,538.5C 523.48,533.466 525.314,528.8 528,524.5C 530.297,519.017 531.797,513.35 532.5,507.5C 533.5,507.5 534.5,507.5 535.5,507.5C 536.858,501.492 538.358,495.492 540,489.5C 541.016,490.634 541.683,490.301 542,488.5C 543.353,483.934 545.186,479.601 547.5,475.5C 546.185,474.105 546.519,473.105 548.5,472.5C 549.713,467.825 551.546,463.492 554,459.5C 556.031,453.662 557.531,447.662 558.5,441.5C 559.5,441.5 560.5,441.5 561.5,441.5C 564.169,430.235 568.169,419.569 573.5,409.5C 573.291,408.914 572.957,408.414 572.5,408C 575.997,404.253 577.664,399.753 577.5,394.5C 578.5,394.5 579.5,394.5 580.5,394.5C 584.051,382.767 587.884,371.1 592,359.5C 594.9,356.067 596.733,352.067 597.5,347.5C 598.308,347.192 598.975,346.692 599.5,346C 598.446,344.612 598.28,343.112 599,341.5C 599.333,341.833 599.667,342.167 600,342.5C 601.575,336.925 603.575,332.258 606,328.5C 608.297,323.017 609.797,317.35 610.5,311.5C 611.5,311.5 612.5,311.5 613.5,311.5C 614.551,305.418 616.051,299.418 618,293.5C 618.333,293.833 618.667,294.167 619,294.5C 620.686,290.282 622.02,285.949 623,281.5C 625.122,280.78 625.622,279.613 624.5,278C 627.368,274.132 630.868,270.966 635,268.5C 635.464,267.906 635.631,267.239 635.5,266.5 Z M 654.5,356.5 C 655.332,376.996 655.832,397.663 656,418.5C 656.333,418.167 656.667,417.833 657,417.5C 658.173,426.116 658.839,434.783 659,443.5C 659.402,444.872 659.902,446.205 660.5,447.5C 649.181,448.666 637.848,448.832 626.5,448C 628.381,444.289 630.381,440.622 632.5,437C 632.043,436.586 631.709,436.086 631.5,435.5C 638.055,423.455 642.055,410.455 643.5,396.5C 644.5,396.5 645.5,396.5 646.5,396.5C 647.006,390.468 647.839,384.468 649,378.5C 652.022,371.586 653.855,364.253 654.5,356.5 Z"/></g>
<g><path style="opacity:0.935" fill="#0081c9" d="M 870.5,267.5 C 891.004,266.172 911.671,266.172 932.5,267.5C 935.071,268.728 936.405,270.728 936.5,273.5C 937.5,273.5 938.5,273.5 939.5,273.5C 940.825,285.608 942.325,297.608 944,309.5C 946.772,319.22 948.438,329.22 949,339.5C 949.667,340.167 950.333,340.833 951,341.5C 953.81,368.955 957.81,396.955 963,425.5C 963.308,426.308 963.808,426.975 964.5,427.5C 966.431,442.312 968.597,456.979 971,471.5C 971.333,471.167 971.667,470.833 972,470.5C 972.522,479.958 973.522,489.291 975,498.5C 975.317,500.301 975.984,500.634 977,499.5C 978.59,513.946 980.257,528.28 982,542.5C 982.414,542.957 982.914,543.291 983.5,543.5C 984.662,548.467 984.829,553.467 984,558.5C 983.667,558.167 983.333,557.833 983,557.5C 982.031,560.302 980.198,562.302 977.5,563.5C 958.167,564.833 938.833,564.833 919.5,563.5C 917.54,561.844 915.54,560.177 913.5,558.5C 912.902,557.205 912.402,555.872 912,554.5C 911.667,554.833 911.333,555.167 911,555.5C 909.187,540.232 907.354,525.065 905.5,510C 883.167,509.333 860.833,509.333 838.5,510C 837.333,514.5 836.167,519 835,523.5C 833.984,522.366 833.317,522.699 833,524.5C 830.182,534.458 826.682,544.125 822.5,553.5C 819.91,557.924 816.243,561.091 811.5,563C 811.833,563.333 812.167,563.667 812.5,564C 794.158,564.833 775.824,564.666 757.5,563.5C 756.234,562.276 755.067,560.943 754,559.5C 753.667,559.833 753.333,560.167 753,560.5C 752.501,556.179 752.334,551.846 752.5,547.5C 753.552,547.649 754.552,547.483 755.5,547C 754.446,545.612 754.28,544.112 755,542.5C 755.914,543.654 756.747,543.487 757.5,542C 757.167,541.667 756.833,541.333 756.5,541C 758.135,537.683 759.301,534.183 760,530.5C 760.333,530.833 760.667,531.167 761,531.5C 763.772,525.344 765.605,519.011 766.5,512.5C 767.5,512.5 768.5,512.5 769.5,512.5C 772.147,501.912 775.147,491.578 778.5,481.5C 781.276,481.911 781.943,481.078 780.5,479C 784.224,470.698 787.891,462.198 791.5,453.5C 792.474,451.257 792.808,448.924 792.5,446.5C 793.5,446.5 794.5,446.5 795.5,446.5C 799.051,434.767 802.884,423.1 807,411.5C 810.005,408.128 811.672,404.128 812,399.5C 813.855,397.585 815.355,395.418 816.5,393C 816.167,392.667 815.833,392.333 815.5,392C 817.26,388.721 818.426,385.221 819,381.5C 820.016,382.634 820.683,382.301 821,380.5C 823.297,375.017 824.797,369.35 825.5,363.5C 826.5,363.5 827.5,363.5 828.5,363.5C 828.34,361.801 828.506,360.134 829,358.5C 832.518,350.329 835.518,341.996 838,333.5C 838.333,333.833 838.667,334.167 839,334.5C 844.251,322.423 848.584,310.09 852,297.5C 852.667,298.833 853.333,298.833 854,297.5C 855.203,293.89 856.203,290.224 857,286.5C 857.75,285.874 858.584,285.374 859.5,285C 858.483,283.951 858.316,282.784 859,281.5C 861.428,278.982 863.095,275.982 864,272.5C 866.695,270.53 868.861,268.863 870.5,267.5 Z M 891.5,349.5 C 891.313,374.312 891.813,399.312 893,424.5C 894.225,431.755 894.892,439.089 895,446.5C 895.5,447 896,447.5 896.5,448C 885.167,448.667 873.833,448.667 862.5,448C 864.407,444.349 865.907,440.516 867,436.5C 867.333,436.833 867.667,437.167 868,437.5C 869.335,433.248 870.169,428.914 870.5,424.5C 871.5,424.5 872.5,424.5 873.5,424.5C 874.751,416.703 876.585,409.036 879,401.5C 879.333,401.833 879.667,402.167 880,402.5C 881.352,393.225 883.519,384.225 886.5,375.5C 888.386,366.848 890.053,358.182 891.5,349.5 Z"/></g>
<g><path style="opacity:0.004" fill="#0081c9" d="M 135.5,551.5 C 136.525,551.897 136.692,552.563 136,553.5C 135.536,552.906 135.369,552.239 135.5,551.5 Z"/></g>
<g><path style="opacity:0.889" fill="#060000" d="M 147.5,629.5 C 154.976,628.895 161.976,630.395 168.5,634C 172.843,637.852 175.176,642.686 175.5,648.5C 172.5,648.5 169.5,648.5 166.5,648.5C 165.327,640.563 160.661,636.896 152.5,637.5C 148.933,637.411 145.6,638.245 142.5,640C 138.607,643.746 138.607,647.412 142.5,651C 151.15,653.665 159.817,656.332 168.5,659C 176.056,663.848 178.556,670.682 176,679.5C 171.222,687.894 163.889,691.894 154,691.5C 138.895,692.21 130.395,685.21 128.5,670.5C 131.214,670.25 133.881,670.083 136.5,670C 138.798,678.916 144.631,683.416 154,683.5C 160.422,683.63 165.089,680.963 168,675.5C 168.755,672.503 167.922,670.003 165.5,668C 157.995,665.206 150.328,662.873 142.5,661C 129.136,654.474 127.136,645.474 136.5,634C 140.053,631.879 143.72,630.379 147.5,629.5 Z"/></g>
<g><path style="opacity:0.893" fill="#060000" d="M 208.5,629.5 C 233.58,629.752 244.746,642.419 242,667.5C 236.627,686.612 224.127,694.112 204.5,690C 193.826,686.658 187.326,679.491 185,668.5C 181.292,648.127 189.125,635.127 208.5,629.5 Z M 208.5,637.5 C 227.027,637.476 235.193,646.81 233,665.5C 227.721,683.261 216.888,687.761 200.5,679C 193.545,670.578 191.711,661.078 195,650.5C 197.442,643.888 201.942,639.555 208.5,637.5 Z"/></g>
<g><path style="opacity:0.883" fill="#060000" d="M 713.5,629.5 C 727.446,627.799 737.112,633.299 742.5,646C 742.355,646.772 742.022,647.439 741.5,648C 738.883,648.822 736.216,649.322 733.5,649.5C 730.386,639.77 723.719,635.936 713.5,638C 707.1,639.399 702.934,643.233 701,649.5C 698.315,659.263 699.315,668.596 704,677.5C 713.691,685.791 723.024,685.458 732,676.5C 733.707,674.091 734.54,671.425 734.5,668.5C 738.236,668.496 741.236,669.829 743.5,672.5C 739.674,685.006 731.174,691.339 718,691.5C 703.312,691.145 694.312,683.811 691,669.5C 687.784,656.09 690.95,644.59 700.5,635C 704.741,632.651 709.075,630.818 713.5,629.5 Z"/></g>
<g><path style="opacity:0.892" fill="#060000" d="M 877.5,629.5 C 881.605,629.234 885.605,629.734 889.5,631C 888.577,633.041 888.244,635.208 888.5,637.5C 880.247,635.12 876.581,638.12 877.5,646.5C 880.167,646.5 882.833,646.5 885.5,646.5C 885.5,648.833 885.5,651.167 885.5,653.5C 882.833,653.5 880.167,653.5 877.5,653.5C 877.5,665.833 877.5,678.167 877.5,690.5C 874.833,690.5 872.167,690.5 869.5,690.5C 869.5,678.167 869.5,665.833 869.5,653.5C 867.167,653.5 864.833,653.5 862.5,653.5C 862.5,651.167 862.5,648.833 862.5,646.5C 864.833,646.5 867.167,646.5 869.5,646.5C 868.835,641.266 869.835,636.432 872.5,632C 874.315,631.243 875.981,630.41 877.5,629.5 Z"/></g>
<g><path style="opacity:0.871" fill="#060000" d="M 109.5,630.5 C 112.5,630.5 115.5,630.5 118.5,630.5C 118.5,650.5 118.5,670.5 118.5,690.5C 115.5,690.5 112.5,690.5 109.5,690.5C 109.5,670.5 109.5,650.5 109.5,630.5 Z"/></g>
<g><path style="opacity:0.879" fill="#060000" d="M 285.5,630.5 C 298.591,628.791 307.091,634.124 311,646.5C 313.167,657.667 312.5,668.667 309,679.5C 302.999,689.839 294.166,693.339 282.5,690C 276.857,687.018 273.523,682.351 272.5,676C 275.482,675.502 278.482,675.335 281.5,675.5C 283.214,683.357 287.881,685.857 295.5,683C 301.318,678.534 303.652,672.7 302.5,665.5C 294.332,671.979 285.999,672.145 277.5,666C 268.873,654.101 269.873,643.101 280.5,633C 282.315,632.243 283.981,631.41 285.5,630.5 Z M 288.5,637.5 C 300.286,637.807 304.786,643.807 302,655.5C 298.237,662.811 292.737,664.645 285.5,661C 278.171,652.136 279.171,644.303 288.5,637.5 Z"/></g>
<g><path style="opacity:0.891" fill="#060000" d="M 332.5,630.5 C 349.118,629.612 357.618,637.612 358,654.5C 359.213,665.013 357.547,675.013 353,684.5C 344.208,692.899 334.875,693.566 325,686.5C 321.632,682.065 319.632,677.065 319,671.5C 318.124,662.77 318.458,654.104 320,645.5C 321.52,638.158 325.687,633.158 332.5,630.5 Z M 335.5,637.5 C 344.004,637.501 348.504,641.834 349,650.5C 349.87,658.897 349.537,667.23 348,675.5C 343.822,685.546 337.822,686.88 330,679.5C 325.803,667.975 325.469,656.308 329,644.5C 330.356,641.314 332.522,638.981 335.5,637.5 Z"/></g>
<g><path style="opacity:0.886" fill="#060000" d="M 379.5,630.5 C 394.403,628.902 402.569,635.569 404,650.5C 405.073,660.311 404.406,669.978 402,679.5C 396.925,690.147 388.759,693.647 377.5,690C 372.269,687.768 368.769,683.935 367,678.5C 363.425,665.716 363.758,653.049 368,640.5C 370.818,635.839 374.651,632.505 379.5,630.5 Z M 381.5,637.5 C 386.347,636.84 390.181,638.507 393,642.5C 397.88,655.324 397.547,667.99 392,680.5C 387,685.833 382,685.833 377,680.5C 375.438,678.043 374.438,675.376 374,672.5C 373.333,664.833 373.333,657.167 374,649.5C 374.759,644.295 377.259,640.295 381.5,637.5 Z"/></g>
<g><path style="opacity:0.904" fill="#060000" d="M 433.5,630.5 C 435.5,630.5 437.5,630.5 439.5,630.5C 439.5,650.5 439.5,670.5 439.5,690.5C 436.833,690.5 434.167,690.5 431.5,690.5C 431.667,675.496 431.5,660.496 431,645.5C 426.79,648.939 422.123,651.606 417,653.5C 416.333,650.833 416.333,648.167 417,645.5C 423.965,642.032 429.465,637.032 433.5,630.5 Z"/></g>
<g><path style="opacity:0.87" fill="#060000" d="M 494.5,630.5 C 508.979,627.718 517.646,633.385 520.5,647.5C 519.843,651.814 518.343,655.814 516,659.5C 507.833,667 499.667,674.5 491.5,682C 501.161,682.5 510.828,682.666 520.5,682.5C 520.5,685.167 520.5,687.833 520.5,690.5C 506.833,690.5 493.167,690.5 479.5,690.5C 479.926,685.31 481.759,680.643 485,676.5C 492.667,669.5 500.333,662.5 508,655.5C 513.977,646.133 511.643,640.133 501,637.5C 493.774,638.225 489.607,642.225 488.5,649.5C 486.253,648.626 483.92,648.292 481.5,648.5C 481.449,639.249 485.782,633.249 494.5,630.5 Z"/></g>
<g><path style="opacity:0.895" fill="#060000" d="M 541.5,630.5 C 555.462,628.63 563.629,634.63 566,648.5C 566.667,656.833 566.667,665.167 566,673.5C 561.613,690.276 551.446,695.109 535.5,688C 531.291,684.083 528.791,679.25 528,673.5C 527.109,663.772 527.443,654.106 529,644.5C 530.954,637.72 535.12,633.053 541.5,630.5 Z M 543.5,637.5 C 553.232,637.567 558.065,642.567 558,652.5C 559.011,660.983 558.344,669.316 556,677.5C 551.103,685.649 545.437,686.315 539,679.5C 535.172,668.752 534.505,657.752 537,646.5C 538.222,642.686 540.389,639.686 543.5,637.5 Z"/></g>
<g><path style="opacity:0.859" fill="#060000" d="M 596.5,630.5 C 598.5,630.5 600.5,630.5 602.5,630.5C 602.5,650.5 602.5,670.5 602.5,690.5C 599.5,690.5 596.5,690.5 593.5,690.5C 593.667,675.496 593.5,660.496 593,645.5C 589.001,648.668 584.668,651.335 580,653.5C 579.179,650.446 579.345,647.446 580.5,644.5C 587.111,641.21 592.444,636.543 596.5,630.5 Z"/></g>
<g><path style="opacity:0.886" fill="#060000" d="M 849.5,630.5 C 852.167,630.5 854.833,630.5 857.5,630.5C 857.5,633.5 857.5,636.5 857.5,639.5C 854.833,639.5 852.167,639.5 849.5,639.5C 849.5,636.5 849.5,633.5 849.5,630.5 Z"/></g>
<g><path style="opacity:0.814" fill="#060000" d="M 890.5,630.5 C 893.5,630.5 896.5,630.5 899.5,630.5C 899.5,633.5 899.5,636.5 899.5,639.5C 896.5,639.5 893.5,639.5 890.5,639.5C 890.5,636.5 890.5,633.5 890.5,630.5 Z"/></g>
<g><path style="opacity:0.887" fill="#060000" d="M 983.5,630.5 C 986.167,630.5 988.833,630.5 991.5,630.5C 991.5,650.5 991.5,670.5 991.5,690.5C 988.833,690.5 986.167,690.5 983.5,690.5C 983.719,689.325 983.386,688.325 982.5,687.5C 970.774,693.941 961.607,691.275 955,679.5C 951.592,669.689 952.592,660.356 958,651.5C 966.158,644.256 974.492,643.923 983,650.5C 983.5,643.842 983.666,637.175 983.5,630.5 Z M 970.5,652.5 C 980.163,653.674 984.496,659.174 983.5,669C 984.285,677.375 980.618,682.542 972.5,684.5C 964.913,682.026 961.246,676.692 961.5,668.5C 960.918,660.984 963.918,655.651 970.5,652.5 Z"/></g>
<g><path style="opacity:0.877" fill="#060000" d="M 626.5,631.5 C 636.833,631.5 647.167,631.5 657.5,631.5C 657.5,634.167 657.5,636.833 657.5,639.5C 649.5,639.5 641.5,639.5 633.5,639.5C 633.076,643.034 632.409,646.534 631.5,650C 631.833,650.833 632.167,651.667 632.5,652.5C 642.906,648.25 651.406,650.584 658,659.5C 663.811,675.038 658.978,685.538 643.5,691C 629.838,692.687 621.838,686.854 619.5,673.5C 622.572,673.183 625.572,673.516 628.5,674.5C 631.709,683.736 637.709,686.236 646.5,682C 651.53,676.612 652.697,670.446 650,663.5C 643.314,655.782 636.48,655.615 629.5,663C 626.808,663.43 624.141,663.263 621.5,662.5C 623.037,652.147 624.704,641.814 626.5,631.5 Z"/></g>
<g><path style="opacity:0.876" fill="#060000" d="M 832.5,632.5 C 833.5,632.5 834.5,632.5 835.5,632.5C 835.5,637.167 835.5,641.833 835.5,646.5C 837.833,646.5 840.167,646.5 842.5,646.5C 842.5,648.833 842.5,651.167 842.5,653.5C 840.167,653.5 837.833,653.5 835.5,653.5C 835.334,662.839 835.5,672.173 836,681.5C 838.168,683.455 840.502,684.121 843,683.5C 843.497,685.81 843.663,688.143 843.5,690.5C 839.818,690.665 836.152,690.499 832.5,690C 830.714,689.215 829.214,688.049 828,686.5C 827.5,675.505 827.333,664.505 827.5,653.5C 824.428,653.187 821.595,653.854 819,655.5C 812.648,653.009 808.648,655.009 807,661.5C 806.5,671.161 806.334,680.828 806.5,690.5C 803.5,690.5 800.5,690.5 797.5,690.5C 797.5,675.833 797.5,661.167 797.5,646.5C 800.167,646.5 802.833,646.5 805.5,646.5C 805.367,651.272 806.7,651.438 809.5,647C 813.417,645.103 817.251,645.27 821,647.5C 823.041,646.577 825.208,646.244 827.5,646.5C 827.177,642.774 827.511,639.107 828.5,635.5C 830.261,634.965 831.594,633.965 832.5,632.5 Z"/></g>
<g><path style="opacity:0.887" fill="#060000" d="M 766.5,645.5 C 782.625,645.959 790.625,654.292 790.5,670.5C 779.48,670.168 768.48,670.501 757.5,671.5C 760.375,682.938 767.042,686.272 777.5,681.5C 779.027,679.807 780.36,677.973 781.5,676C 784.157,675.825 786.824,675.992 789.5,676.5C 788.005,684.827 783.005,689.66 774.5,691C 762.221,692.949 754.055,688.116 750,676.5C 746.195,660.757 751.695,650.424 766.5,645.5 Z M 768.5,652.5 C 775.373,652.875 779.707,656.375 781.5,663C 773.841,663.5 766.174,663.666 758.5,663.5C 759.795,657.876 763.128,654.209 768.5,652.5 Z"/></g>
<g><path style="opacity:0.886" fill="#060000" d="M 924.5,645.5 C 940.806,645.808 948.473,654.141 947.5,670.5C 936.833,670.5 926.167,670.5 915.5,670.5C 916.897,681.361 922.897,685.528 933.5,683C 935.915,680.258 938.415,677.758 941,675.5C 943.292,675.781 945.458,676.448 947.5,677.5C 942.099,690.028 932.765,694.195 919.5,690C 912.329,686.844 908.162,681.344 907,673.5C 904.557,658.677 910.39,649.344 924.5,645.5 Z M 925.5,652.5 C 933.235,652.24 937.569,655.907 938.5,663.5C 931.167,663.5 923.833,663.5 916.5,663.5C 916.961,657.71 919.961,654.043 925.5,652.5 Z"/></g>
<g><path style="opacity:0.803" fill="#060000" d="M 461.5,646.5 C 464.5,646.5 467.5,646.5 470.5,646.5C 470.5,649.833 470.5,653.167 470.5,656.5C 467.5,656.5 464.5,656.5 461.5,656.5C 461.5,653.167 461.5,649.833 461.5,646.5 Z"/></g>
<g><path style="opacity:0.906" fill="#060000" d="M 849.5,646.5 C 852.167,646.5 854.833,646.5 857.5,646.5C 857.5,661.167 857.5,675.833 857.5,690.5C 854.833,690.5 852.167,690.5 849.5,690.5C 849.5,675.833 849.5,661.167 849.5,646.5 Z"/></g>
<g><path style="opacity:0.832" fill="#060000" d="M 890.5,646.5 C 893.5,646.5 896.5,646.5 899.5,646.5C 899.5,661.167 899.5,675.833 899.5,690.5C 896.5,690.5 893.5,690.5 890.5,690.5C 890.5,675.833 890.5,661.167 890.5,646.5 Z"/></g>
<g><path style="opacity:0.866" fill="#060000" d="M 461.5,681.5 C 464.5,681.5 467.5,681.5 470.5,681.5C 470.5,684.5 470.5,687.5 470.5,690.5C 467.5,690.5 464.5,690.5 461.5,690.5C 461.5,687.5 461.5,684.5 461.5,681.5 Z"/></g>
</svg>
