<?xml version="1.0" encoding="UTF-8"?>
<!DOCTYPE svg PUBLIC "-//W3C//DTD SVG 1.1//EN" "http://www.w3.org/Graphics/SVG/1.1/DTD/svg11.dtd">
<svg xmlns="http://www.w3.org/2000/svg" version="1.1" width="666px" height="125px" style="shape-rendering:geometricPrecision; text-rendering:geometricPrecision; image-rendering:optimizeQuality; fill-rule:evenodd; clip-rule:evenodd" xmlns:xlink="http://www.w3.org/1999/xlink">
<g><path style="opacity:0.918" fill="#20a6eb" d="M 39.5,-0.5 C 46.1667,-0.5 52.8333,-0.5 59.5,-0.5C 89.2689,8.81795 102.102,29.1513 98,60.5C 94.7873,71.592 89.954,81.9253 83.5,91.5C 78.223,96.674 73.3897,102.341 69,108.5C 62.9967,113.671 57.1634,119.004 51.5,124.5C 49.8333,124.5 48.1667,124.5 46.5,124.5C 35.1097,114.511 24.6097,103.511 15,91.5C 8.44564,81.3941 3.27898,70.7275 -0.5,59.5C -0.5,52.5 -0.5,45.5 -0.5,38.5C 5.60702,18.0593 18.9404,5.05933 39.5,-0.5 Z M 68.5,24.5 C 75.3345,24.7088 77.1678,28.0422 74,34.5C 69.8779,37.4578 66.7112,41.1244 64.5,45.5C 67.5195,55.2696 70.3528,64.9363 73,74.5C 71.4284,76.5628 69.595,77.2294 67.5,76.5C 63.4908,68.4721 58.9908,60.8055 54,53.5C 49.6667,57.5 45.3333,61.5 41,65.5C 40.5925,69.1293 41.0925,72.6293 42.5,76C 41.0696,77.4404 39.403,77.7737 37.5,77C 32.1488,71.9825 27.1488,66.6492 22.5,61C 22.7336,59.2676 23.7336,58.4342 25.5,58.5C 28.7975,59.4959 32.1308,59.6626 35.5,59C 39.5198,55.314 43.1864,51.314 46.5,47C 38.9237,41.3949 30.9237,36.3949 22.5,32C 23.7774,30.2142 25.444,29.0476 27.5,28.5C 37.2724,30.3171 46.7724,32.9838 56,36.5C 60.6833,32.9822 64.85,28.9822 68.5,24.5 Z"/></g>
<g><path style="opacity:0.924" fill="#353635" d="M 118.5,13.5 C 131.5,13.5 144.5,13.5 157.5,13.5C 157.5,17.8333 157.5,22.1667 157.5,26.5C 153.167,26.5 148.833,26.5 144.5,26.5C 144.5,54.5 144.5,82.5 144.5,110.5C 139.833,110.5 135.167,110.5 130.5,110.5C 130.5,82.5 130.5,54.5 130.5,26.5C 126.5,26.5 122.5,26.5 118.5,26.5C 118.5,22.1667 118.5,17.8333 118.5,13.5 Z"/></g>
<g><path style="opacity:0.91" fill="#353635" d="M 163.5,13.5 C 174.505,13.3335 185.505,13.5002 196.5,14C 202.181,16.686 205.015,21.186 205,27.5C 205.667,37.5 205.667,47.5 205,57.5C 204.587,60.2321 203.92,62.8987 203,65.5C 201.265,67.6112 199.432,69.6112 197.5,71.5C 200.822,84.432 203.822,97.432 206.5,110.5C 201.833,110.5 197.167,110.5 192.5,110.5C 189.515,97.8956 186.849,85.229 184.5,72.5C 182.167,72.5 179.833,72.5 177.5,72.5C 177.5,85.1667 177.5,97.8333 177.5,110.5C 172.833,110.5 168.167,110.5 163.5,110.5C 163.5,78.1667 163.5,45.8333 163.5,13.5 Z M 177.5,26.5 C 181.182,26.3347 184.848,26.5014 188.5,27C 189,27.5 189.5,28 190,28.5C 190.807,38.2143 190.641,47.8809 189.5,57.5C 188.975,58.1924 188.308,58.6924 187.5,59C 184.183,59.4983 180.85,59.665 177.5,59.5C 177.5,48.5 177.5,37.5 177.5,26.5 Z"/></g>
<g><path style="opacity:0.908" fill="#353635" d="M 222.5,13.5 C 231.173,13.3336 239.84,13.5002 248.5,14C 251.333,15.5 253.5,17.6667 255,20.5C 256.469,50.45 256.969,80.45 256.5,110.5C 251.5,110.5 246.5,110.5 241.5,110.5C 241.179,98.9191 241.512,87.4191 242.5,76C 237.845,75.5008 233.179,75.3342 228.5,75.5C 228.5,87.1667 228.5,98.8333 228.5,110.5C 223.833,110.5 219.167,110.5 214.5,110.5C 214.333,81.1648 214.5,51.8314 215,22.5C 216.642,18.6997 219.142,15.6997 222.5,13.5 Z M 230.5,26.5 C 234.106,26.2108 237.606,26.5442 241,27.5C 241.5,39.1619 241.667,50.8286 241.5,62.5C 237.167,62.5 232.833,62.5 228.5,62.5C 228.333,51.1618 228.5,39.8284 229,28.5C 229.717,27.9558 230.217,27.2891 230.5,26.5 Z"/></g>
<g><path style="opacity:0.883" fill="#353635" d="M 260.5,13.5 C 265.648,12.9264 270.482,13.593 275,15.5C 277.592,36.9799 280.925,58.3132 285,79.5C 288.255,57.5481 291.088,35.5481 293.5,13.5C 298.5,13.5 303.5,13.5 308.5,13.5C 303.582,45.8451 298.582,78.1785 293.5,110.5C 287.5,110.5 281.5,110.5 275.5,110.5C 270.609,78.1511 265.609,45.8177 260.5,13.5 Z"/></g>
<g><path style="opacity:0.876" fill="#353635" d="M 313.5,13.5 C 324.833,13.5 336.167,13.5 347.5,13.5C 347.5,17.8333 347.5,22.1667 347.5,26.5C 340.825,26.3337 334.158,26.5004 327.5,27C 328.833,35.6667 328.833,44.3333 327.5,53C 333.167,53.3333 338.833,53.6667 344.5,54C 345.467,58.4014 345.8,62.9014 345.5,67.5C 339.833,67.5 334.167,67.5 328.5,67.5C 328.819,77.4163 328.486,87.2496 327.5,97C 334.158,97.4996 340.825,97.6663 347.5,97.5C 347.5,101.833 347.5,106.167 347.5,110.5C 336.167,110.5 324.833,110.5 313.5,110.5C 313.5,78.1667 313.5,45.8333 313.5,13.5 Z"/></g>
<g><path style="opacity:0.872" fill="#353635" d="M 354.5,13.5 C 359.5,13.5 364.5,13.5 369.5,13.5C 369.5,41.5 369.5,69.5 369.5,97.5C 375.5,97.5 381.5,97.5 387.5,97.5C 387.5,101.833 387.5,106.167 387.5,110.5C 376.5,110.5 365.5,110.5 354.5,110.5C 354.5,78.1667 354.5,45.8333 354.5,13.5 Z"/></g>
<g><path style="opacity:0.863" fill="#353635" d="M 414.5,13.5 C 425.838,13.3335 437.172,13.5001 448.5,14C 451.667,15.8333 454.167,18.3333 456,21.5C 457.561,33.7845 457.894,46.1179 457,58.5C 456.489,60.8782 455.822,63.2115 455,65.5C 452.982,67.3501 451.149,69.3501 449.5,71.5C 452.628,84.4721 455.628,97.4721 458.5,110.5C 453.833,110.5 449.167,110.5 444.5,110.5C 441.705,97.8597 439.039,85.193 436.5,72.5C 434.143,72.3367 431.81,72.5034 429.5,73C 430.489,85.42 430.822,97.92 430.5,110.5C 425.167,110.5 419.833,110.5 414.5,110.5C 414.5,78.1667 414.5,45.8333 414.5,13.5 Z M 429.5,27.5 C 432.976,26.3567 436.642,26.1901 440.5,27C 441,27.5 441.5,28 442,28.5C 442.667,38.1667 442.667,47.8333 442,57.5C 438.067,59.4777 433.9,59.9777 429.5,59C 430.829,48.4019 430.829,37.9019 429.5,27.5 Z"/></g>
<g><path style="opacity:0.885" fill="#353635" d="M 474.5,13.5 C 482.84,13.3336 491.173,13.5003 499.5,14C 504.714,16.5473 507.547,20.714 508,26.5C 508.5,54.498 508.667,82.498 508.5,110.5C 503.5,110.5 498.5,110.5 493.5,110.5C 493.5,98.8333 493.5,87.1667 493.5,75.5C 489.167,75.5 484.833,75.5 480.5,75.5C 480.5,87.1667 480.5,98.8333 480.5,110.5C 475.5,110.5 470.5,110.5 465.5,110.5C 465.333,82.498 465.5,54.498 466,26.5C 466.648,20.6947 469.481,16.3613 474.5,13.5 Z M 482.5,26.5 C 485.518,26.3354 488.518,26.502 491.5,27C 492,27.5 492.5,28 493,28.5C 493.5,39.8284 493.667,51.1618 493.5,62.5C 489.167,62.5 484.833,62.5 480.5,62.5C 479.886,50.249 480.553,38.249 482.5,26.5 Z"/></g>
<g><path style="opacity:0.908" fill="#353635" d="M 518.5,13.5 C 529.172,13.3335 539.839,13.5002 550.5,14C 555.838,16.0073 559.004,19.8406 560,25.5C 560.667,50.8333 560.667,76.1667 560,101.5C 559.27,105.896 556.77,108.73 552.5,110C 541.172,110.5 529.838,110.667 518.5,110.5C 518.5,78.1667 518.5,45.8333 518.5,13.5 Z M 532.5,26.5 C 536.767,26.203 540.934,26.5363 545,27.5C 545.5,50.831 545.667,74.1643 545.5,97.5C 541.167,97.5 536.833,97.5 532.5,97.5C 532.5,73.8333 532.5,50.1667 532.5,26.5 Z"/></g>
<g><path style="opacity:0.884" fill="#353635" d="M 578.5,13.5 C 586.84,13.3336 595.173,13.5003 603.5,14C 606.616,15.4488 609.116,17.6155 611,20.5C 612.477,50.4369 612.977,80.4369 612.5,110.5C 607.5,110.5 602.5,110.5 597.5,110.5C 597.5,98.8333 597.5,87.1667 597.5,75.5C 593.167,75.5 588.833,75.5 584.5,75.5C 584.5,87.1667 584.5,98.8333 584.5,110.5C 579.5,110.5 574.5,110.5 569.5,110.5C 569.333,82.498 569.5,54.498 570,26.5C 570.854,20.7722 573.687,16.4389 578.5,13.5 Z M 586.5,26.5 C 590.106,26.2108 593.606,26.5442 597,27.5C 597.5,39.1619 597.667,50.8286 597.5,62.5C 593.167,62.5 588.833,62.5 584.5,62.5C 584.333,51.1618 584.5,39.8284 585,28.5C 585.717,27.9558 586.217,27.2891 586.5,26.5 Z"/></g>
<g><path style="opacity:0.884" fill="#353635" d="M 665.5,104.5 C 665.5,106.5 665.5,108.5 665.5,110.5C 660.833,110.5 656.167,110.5 651.5,110.5C 649.637,98.381 647.137,86.381 644,74.5C 642.246,72.75 640.079,72.0833 637.5,72.5C 637.5,85.1667 637.5,97.8333 637.5,110.5C 632.5,110.5 627.5,110.5 622.5,110.5C 622.5,78.1667 622.5,45.8333 622.5,13.5C 633.838,13.3335 645.172,13.5001 656.5,14C 660.058,15.8917 662.558,18.7251 664,22.5C 664.667,35.5 664.667,48.5 664,61.5C 662.641,65.52 660.475,69.02 657.5,72C 659.489,83.1214 662.156,93.9547 665.5,104.5 Z M 637.5,26.5 C 641.437,26.2065 645.27,26.5399 649,27.5C 649.667,37.5 649.667,47.5 649,57.5C 648.5,58 648,58.5 647.5,59C 644.183,59.4983 640.85,59.665 637.5,59.5C 637.5,48.5 637.5,37.5 637.5,26.5 Z"/></g>
</svg>
