<?xml version="1.0" encoding="UTF-8"?>
<!DOCTYPE svg PUBLIC "-//W3C//DTD SVG 1.1//EN" "http://www.w3.org/Graphics/SVG/1.1/DTD/svg11.dtd">
<svg xmlns="http://www.w3.org/2000/svg" version="1.1" width="225px" height="225px" style="shape-rendering:geometricPrecision; text-rendering:geometricPrecision; image-rendering:optimizeQuality; fill-rule:evenodd; clip-rule:evenodd" xmlns:xlink="http://www.w3.org/1999/xlink">
<g><path style="opacity:1" fill="#1f4a8e" d="M -0.5,-0.5 C 74.5,-0.5 149.5,-0.5 224.5,-0.5C 224.5,74.5 224.5,149.5 224.5,224.5C 149.5,224.5 74.5,224.5 -0.5,224.5C -0.5,149.5 -0.5,74.5 -0.5,-0.5 Z"/></g>
<g><path style="opacity:1" fill="#e5e8ef" d="M 92.5,37.5 C 93.675,37.281 94.675,37.6143 95.5,38.5C 97.6545,48.9959 98.9878,48.6625 99.5,37.5C 101.167,37.5 102.833,37.5 104.5,37.5C 105.012,48.6625 106.346,48.9959 108.5,38.5C 109.5,37.1667 110.5,37.1667 111.5,38.5C 110.117,42.7499 109.117,47.0832 108.5,51.5C 106.856,51.7135 105.356,51.3802 104,50.5C 102.671,38.5145 101.338,38.5145 100,50.5C 98.6439,51.3802 97.1439,51.7135 95.5,51.5C 94.815,46.7606 93.815,42.0939 92.5,37.5 Z"/></g>
<g><path style="opacity:1" fill="#e4e8ee" d="M 113.5,37.5 C 116.247,37.1866 118.914,37.52 121.5,38.5C 120.176,39.9347 118.51,40.9347 116.5,41.5C 117.689,42.4287 119.022,42.762 120.5,42.5C 120.5,43.5 120.5,44.5 120.5,45.5C 119.167,45.5 117.833,45.5 116.5,45.5C 116.5,47.5 116.5,49.5 116.5,51.5C 115.5,51.5 114.5,51.5 113.5,51.5C 113.5,46.8333 113.5,42.1667 113.5,37.5 Z"/></g>
<g><path style="opacity:1" fill="#e6eaf0" d="M 122.5,37.5 C 124.857,37.3367 127.19,37.5034 129.5,38C 133.476,40.6174 133.476,43.2841 129.5,46C 128.207,46.49 126.873,46.6567 125.5,46.5C 125.5,48.1667 125.5,49.8333 125.5,51.5C 124.5,51.5 123.5,51.5 122.5,51.5C 122.5,46.8333 122.5,42.1667 122.5,37.5 Z"/></g>
<g><path style="opacity:1" fill="#1c438b" d="M 125.5,39.5 C 127.912,39.6941 128.912,41.0274 128.5,43.5C 127.5,43.5 126.5,43.5 125.5,43.5C 125.5,42.1667 125.5,40.8333 125.5,39.5 Z"/></g>
<g><path style="opacity:1" fill="#dfe4eb" d="M 140.5,56.5 C 143.414,57.9061 145.914,59.9061 148,62.5C 148.749,63.635 148.583,64.635 147.5,65.5C 144.002,63.3438 141.669,60.3438 140.5,56.5 Z"/></g>
<g><path style="opacity:1" fill="#e5e8ef" d="M 81.5,57.5 C 83.0281,57.5173 83.5281,58.184 83,59.5C 80.9835,61.684 78.8169,63.684 76.5,65.5C 75.5923,64.21 75.759,62.8767 77,61.5C 78.6667,60.2668 80.1667,58.9335 81.5,57.5 Z"/></g>
<g><path style="opacity:1" fill="#d4dae4" d="M 134.5,58.5 C 135.756,58.4614 136.756,58.9614 137.5,60C 136.102,62.9849 133.936,65.1515 131,66.5C 129.78,62.7069 130.947,60.0402 134.5,58.5 Z"/></g>
<g><path style="opacity:1" fill="#dee2eb" d="M 74.5,59.5 C 75.0431,59.56 75.3764,59.8933 75.5,60.5C 73.5514,63.9573 72.7181,67.6239 73,71.5C 75.4139,68.1489 78.2472,66.1489 81.5,65.5C 78.543,69.8246 74.8763,73.4912 70.5,76.5C 68.9449,70.1631 70.2782,64.4964 74.5,59.5 Z"/></g>
<g><path style="opacity:1" fill="#e6eaf0" d="M 149.5,60.5 C 154.184,64.7813 155.684,70.1146 154,76.5C 149.5,73.3333 145.667,69.5 142.5,65C 145.569,66.139 148.402,67.9723 151,70.5C 151.153,67.1001 150.653,63.7667 149.5,60.5 Z"/></g>
<g><path style="opacity:1" fill="#ebedf2" d="M 154.5,85.5 C 152.557,81.8673 150.557,78.2006 148.5,74.5C 151.503,75.6425 154.003,77.9758 156,81.5C 156.397,76.5639 156.564,71.8972 156.5,67.5C 160.317,74.3547 160.483,81.3547 157,88.5C 156.623,87.0577 155.79,86.0577 154.5,85.5 Z"/></g>
<g><path style="opacity:1" fill="#e5e8ef" d="M 67.5,67.5 C 68.3255,71.9819 68.8255,76.6486 69,81.5C 70.6673,78.3011 72.834,76.3011 75.5,75.5C 73.3295,79.8441 70.6628,83.8441 67.5,87.5C 63.6547,80.8846 63.6547,74.2179 67.5,67.5 Z"/></g>
<g><path style="opacity:1" fill="#f2f4f7" d="M 114.5,77.5 C 113.177,81.9001 113.177,86.4001 114.5,91C 109.026,91.147 103.693,91.9804 98.5,93.5C 94.816,84.4665 89.1493,76.7998 81.5,70.5C 83.4658,69.628 85.4658,69.7947 87.5,71C 90.3695,72.5963 93.0361,74.4297 95.5,76.5C 96.9352,79.4052 99.1019,80.0718 102,78.5C 103.711,82.1258 103.044,82.7925 100,80.5C 99.5,80.6667 99,80.8333 98.5,81C 100.361,83.2048 101.861,85.7048 103,88.5C 105.127,85.0258 107.294,81.5258 109.5,78C 107.94,75.8853 107.607,73.7186 108.5,71.5C 110.35,69.1339 111.683,66.4672 112.5,63.5C 114.387,65.0261 115.387,67.0261 115.5,69.5C 115.163,72.1764 114.83,74.843 114.5,77.5 Z"/></g>
<g><path style="opacity:1" fill="#909cbd" d="M 108.5,71.5 C 107.607,73.7186 107.94,75.8853 109.5,78C 107.294,81.5258 105.127,85.0258 103,88.5C 101.861,85.7048 100.361,83.2048 98.5,81C 99,80.8333 99.5,80.6667 100,80.5C 103.044,82.7925 103.711,82.1258 102,78.5C 99.1019,80.0718 96.9352,79.4052 95.5,76.5C 96.4081,64.2062 100.741,62.5396 108.5,71.5 Z"/></g>
<g><path style="opacity:1" fill="#d4dae5" d="M 122.5,92.5 C 121.5,92.5 120.5,92.5 119.5,92.5C 119.681,89.447 119.848,86.447 120,83.5C 118.711,86.3508 118.211,89.3508 118.5,92.5C 111.502,91.8036 104.835,92.8036 98.5,95.5C 98.5,94.8333 98.5,94.1667 98.5,93.5C 103.693,91.9804 109.026,91.147 114.5,91C 113.177,86.4001 113.177,81.9001 114.5,77.5C 116.173,72.4922 118.673,67.8255 122,63.5C 121.055,66.2493 119.889,69.0827 118.5,72C 119.102,73.563 119.935,73.3963 121,71.5C 121.167,71.8333 121.333,72.1667 121.5,72.5C 119.219,74.3944 118.052,76.7277 118,79.5C 118.837,77.9926 120.004,77.4926 121.5,78C 119.671,79.1133 118.837,80.6133 119,82.5C 119.667,81.1667 120.333,81.1667 121,82.5C 122.556,77.7202 124.889,73.3869 128,69.5C 127.291,72.1869 126.625,74.8536 126,77.5C 128.719,74.0778 131.886,71.5778 135.5,70C 130.074,74.0645 126.574,79.2311 125,85.5C 127.584,83.4241 129.251,80.7574 130,77.5C 132.453,77.0594 134.953,77.5594 137.5,79C 134.963,81.5457 131.963,83.2124 128.5,84C 125.629,86.249 123.629,89.0824 122.5,92.5 Z"/></g>
<g><path style="opacity:1" fill="#eceef3" d="M 154.5,85.5 C 155.772,88.348 156.605,91.348 157,94.5C 158.419,89.2383 160.419,84.2383 163,79.5C 163.988,87.1902 161.822,93.8569 156.5,99.5C 153.123,94.6529 151.623,89.3196 152,83.5C 152.708,84.3805 153.542,85.0472 154.5,85.5 Z"/></g>
<g><path style="opacity:1" fill="#e9ecf1" d="M 60.5,79.5 C 63.8272,83.4872 66.1606,88.1539 67.5,93.5C 67.9692,89.9646 69.4692,86.9646 72,84.5C 72.6667,86.5 72.6667,88.5 72,90.5C 70.6667,93.8333 69.3333,97.1667 68,100.5C 63.4126,94.2373 60.9126,87.2373 60.5,79.5 Z"/></g>
<g><path style="opacity:1" fill="#48659b" d="M 119.5,92.5 C 119.167,92.5 118.833,92.5 118.5,92.5C 118.211,89.3508 118.711,86.3508 120,83.5C 119.848,86.447 119.681,89.447 119.5,92.5 Z"/></g>
<g><path style="opacity:1" fill="#fdfdfe" d="M 118.5,92.5 C 118.833,92.5 119.167,92.5 119.5,92.5C 120.5,92.5 121.5,92.5 122.5,92.5C 123.5,92.5 124.5,92.5 125.5,92.5C 125.784,94.4147 125.451,96.0813 124.5,97.5C 114.379,97.004 104.379,97.6706 94.5,99.5C 95.5,97.8333 96.8333,96.5 98.5,95.5C 104.835,92.8036 111.502,91.8036 118.5,92.5 Z"/></g>
<g><path style="opacity:1" fill="#eaedf2" d="M 69.5,104.5 C 69.7828,105.289 70.2828,105.956 71,106.5C 71.4966,104.19 71.6633,101.857 71.5,99.5C 71.372,97.3453 71.872,95.3453 73,93.5C 74.6793,99.7692 74.6793,106.103 73,112.5C 68.1891,108.694 64.5225,104.027 62,98.5C 61.3333,97.1667 61.3333,95.8333 62,94.5C 63.9474,98.2762 66.4474,101.61 69.5,104.5 Z"/></g>
<g><path style="opacity:1" fill="#e8ebf1" d="M 150.5,93.5 C 151.931,93.8807 152.764,94.8807 153,96.5C 153.333,99.8333 153.667,103.167 154,106.5C 157.247,102.341 160.247,98.0076 163,93.5C 162.308,101.05 158.808,107.05 152.5,111.5C 151.749,110.624 151.249,109.624 151,108.5C 150.501,103.511 150.334,98.5111 150.5,93.5 Z"/></g>
<g><path style="opacity:1" fill="#8e9fbe" d="M 124.5,97.5 C 124.5,97.8333 124.5,98.1667 124.5,98.5C 116.826,98.3336 109.159,98.5003 101.5,99C 98.2615,99.6218 95.2615,100.788 92.5,102.5C 92.427,100.973 93.0937,99.9731 94.5,99.5C 104.379,97.6706 114.379,97.004 124.5,97.5 Z"/></g>
<g><path style="opacity:1" fill="#8294b7" d="M 71.5,99.5 C 71.6633,101.857 71.4966,104.19 71,106.5C 70.2828,105.956 69.7828,105.289 69.5,104.5C 70.1667,102.833 70.8333,101.167 71.5,99.5 Z"/></g>
<g><path style="opacity:1" fill="#899bb9" d="M 124.5,103.5 C 124.5,103.833 124.5,104.167 124.5,104.5C 113.455,104.428 102.455,104.594 91.5,105C 102.422,103.569 113.422,103.069 124.5,103.5 Z"/></g>
<g><path style="opacity:1" fill="#fcfcfd" d="M 124.5,98.5 C 125.833,100.167 125.833,101.833 124.5,103.5C 113.422,103.069 102.422,103.569 91.5,105C 102.455,104.594 113.455,104.428 124.5,104.5C 125.833,106.167 125.833,107.833 124.5,109.5C 112.412,109.786 100.412,109.12 88.5,107.5C 88.7966,105.57 90.13,103.904 92.5,102.5C 95.2615,100.788 98.2615,99.6218 101.5,99C 109.159,98.5003 116.826,98.3336 124.5,98.5 Z"/></g>
<g><path style="opacity:1" fill="#eef0f4" d="M 147.5,105.5 C 148.156,106.622 148.489,107.955 148.5,109.5C 147.97,112.918 147.47,116.252 147,119.5C 150.725,114.867 154.892,111.534 159.5,109.5C 156.242,117.092 150.575,121.758 142.5,123.5C 142.952,117.147 144.618,111.147 147.5,105.5 Z"/></g>
<g><path style="opacity:1" fill="#e7eaf0" d="M 75.5,105.5 C 79.6419,110.68 81.9752,116.68 82.5,123.5C 73.7491,122.411 68.2491,117.744 66,109.5C 70.0341,112.022 73.7008,115.022 77,118.5C 76.091,114.29 75.591,109.956 75.5,105.5 Z"/></g>
<g><path style="opacity:1" fill="#fafbfc" d="M 89.5,109.5 C 93.0742,108.226 96.7409,108.393 100.5,110C 108.493,110.5 116.493,110.666 124.5,110.5C 125.833,112.167 125.833,113.833 124.5,115.5C 117.833,115.5 111.167,115.5 104.5,115.5C 99.639,113.239 94.639,111.239 89.5,109.5 Z"/></g>
<g><path style="opacity:1" fill="#8395b8" d="M 88.5,107.5 C 100.412,109.12 112.412,109.786 124.5,109.5C 124.5,109.833 124.5,110.167 124.5,110.5C 116.493,110.666 108.493,110.5 100.5,110C 96.7409,108.393 93.0742,108.226 89.5,109.5C 86.6678,108.729 86.3345,108.062 88.5,107.5 Z"/></g>
<g><path style="opacity:1" fill="#e6eaf0" d="M 81.5,115.5 C 81.56,114.957 81.8933,114.624 82.5,114.5C 86.7621,118.846 90.4288,123.679 93.5,129C 85.0271,132.213 77.8604,130.38 72,123.5C 71.3333,122.833 71.3333,122.167 72,121.5C 72.9025,122.701 74.0692,123.535 75.5,124C 79.8244,125.451 84.1577,126.451 88.5,127C 84.9793,123.775 82.646,119.942 81.5,115.5 Z"/></g>
<g><path style="opacity:1" fill="#f4f6f8" d="M 106.5,116.5 C 109.833,116.5 113.167,116.5 116.5,116.5C 116.5,117.5 116.5,118.5 116.5,119.5C 116.401,122.605 115.401,125.272 113.5,127.5C 111.545,123.555 109.211,119.888 106.5,116.5 Z"/></g>
<g><path style="opacity:1" fill="#ebeef3" d="M 141.5,114.5 C 142.262,117.152 141.762,119.818 140,122.5C 138.647,123.685 137.48,125.019 136.5,126.5C 136.833,126.833 137.167,127.167 137.5,127.5C 142.471,125.512 147.471,124.012 152.5,123C 147.292,129.681 140.625,131.847 132.5,129.5C 131.479,128.998 131.312,128.332 132,127.5C 134.687,122.782 137.854,118.449 141.5,114.5 Z"/></g>
<g><path style="opacity:1" fill="#a3b0c9" d="M 104.5,115.5 C 111.167,115.5 117.833,115.5 124.5,115.5C 123.982,116.577 123.648,117.744 123.5,119C 126.703,124.795 125.869,125.628 121,121.5C 120,119.833 119,118.167 118,116.5C 117.768,117.737 117.268,118.737 116.5,119.5C 116.5,118.5 116.5,117.5 116.5,116.5C 113.167,116.5 109.833,116.5 106.5,116.5C 105.508,116.672 104.842,116.338 104.5,115.5 Z"/></g>
<g><path style="opacity:1" fill="#ebeef3" d="M 134.5,132.5 C 136.833,133.167 139.167,133.833 141.5,134.5C 138.752,135.119 135.919,135.452 133,135.5C 127.755,135.182 122.589,134.682 117.5,134C 119.96,135.458 122.127,137.291 124,139.5C 124.688,140.332 124.521,140.998 123.5,141.5C 121.343,139.178 119.01,137.011 116.5,135C 112.913,132.851 109.58,133.184 106.5,136C 104.667,137.833 102.833,139.667 101,141.5C 100.333,140.5 100.333,139.5 101,138.5C 103.167,137 105.333,135.5 107.5,134C 102.014,134.241 96.5139,134.741 91,135.5C 88.1158,135.394 85.2825,135.061 82.5,134.5C 84.8333,133.833 87.1667,133.167 89.5,132.5C 93.5373,131.149 97.704,130.483 102,130.5C 108.497,131.779 114.997,131.779 121.5,130.5C 125.964,130.46 130.297,131.127 134.5,132.5 Z"/></g>
<g><path style="opacity:1" fill="#8395b7" d="M 89.5,132.5 C 87.1667,133.167 84.8333,133.833 82.5,134.5C 81.7109,134.217 81.0442,133.717 80.5,133C 83.4816,132.502 86.4816,132.335 89.5,132.5 Z"/></g>
<g><path style="opacity:1" fill="#899aba" d="M 134.5,132.5 C 137.518,132.335 140.518,132.502 143.5,133C 142.956,133.717 142.289,134.217 141.5,134.5C 139.167,133.833 136.833,133.167 134.5,132.5 Z"/></g>
<g><path style="opacity:1" fill="#fefffe" d="M 99.5,149.5 C 101.436,153.715 102.103,158.381 101.5,163.5C 99.5636,159.285 98.8969,154.619 99.5,149.5 Z"/></g>
<g><path style="opacity:1" fill="#b3bdd2" d="M 99.5,149.5 C 100.209,148.596 101.209,148.263 102.5,148.5C 102.821,153.695 102.487,158.695 101.5,163.5C 102.103,158.381 101.436,153.715 99.5,149.5 Z"/></g>
<g><path style="opacity:1" fill="#e4e8ef" d="M 60.5,149.5 C 61.675,149.281 62.675,149.614 63.5,150.5C 64.4877,153.45 65.321,156.45 66,159.5C 66.539,156.471 67.2057,153.471 68,150.5C 69.3561,149.62 70.8561,149.286 72.5,149.5C 73.8437,160.145 75.1771,160.145 76.5,149.5C 77.5,149.5 78.5,149.5 79.5,149.5C 78.7545,154.228 77.7545,158.894 76.5,163.5C 75.1667,163.5 73.8333,163.5 72.5,163.5C 71.7761,160.157 70.9428,156.824 70,153.5C 69.2057,156.471 68.539,159.471 68,162.5C 66.6439,163.38 65.1439,163.714 63.5,163.5C 62.7545,158.772 61.7545,154.106 60.5,149.5 Z"/></g>
<g><path style="opacity:1" fill="#ebeef3" d="M 81.5,153.5 C 89.6052,152.56 91.9385,155.727 88.5,163C 80.2191,164.278 77.8857,161.112 81.5,153.5 Z"/></g>
<g><path style="opacity:1" fill="#e3e7ee" d="M 91.5,153.5 C 93.6778,154.204 95.6778,154.537 97.5,154.5C 94.9228,156.92 93.9228,159.92 94.5,163.5C 93.5,163.5 92.5,163.5 91.5,163.5C 91.5,160.167 91.5,156.833 91.5,153.5 Z"/></g>
<g><path style="opacity:1" fill="#e7eaf0" d="M 110.5,148.5 C 111.5,148.5 112.5,148.5 113.5,148.5C 113.5,153.5 113.5,158.5 113.5,163.5C 106.019,165.506 102.853,162.839 104,155.5C 105.789,153.771 107.956,153.104 110.5,153.5C 110.5,151.833 110.5,150.167 110.5,148.5 Z"/></g>
<g><path style="opacity:1" fill="#e5e9ef" d="M 121.5,149.5 C 124.167,149.5 126.833,149.5 129.5,149.5C 129.5,150.5 129.5,151.5 129.5,152.5C 127.833,152.5 126.167,152.5 124.5,152.5C 124.5,153.5 124.5,154.5 124.5,155.5C 126.467,155.261 128.301,155.594 130,156.5C 132.21,153.71 135.044,152.877 138.5,154C 142.284,161.721 139.951,164.554 131.5,162.5C 130.05,161.15 129.383,159.484 129.5,157.5C 127.833,157.5 126.167,157.5 124.5,157.5C 124.5,159.5 124.5,161.5 124.5,163.5C 123.5,163.5 122.5,163.5 121.5,163.5C 121.5,158.833 121.5,154.167 121.5,149.5 Z"/></g>
<g><path style="opacity:1" fill="#ebeef2" d="M 143.5,153.5 C 151.592,152.737 153.926,155.903 150.5,163C 141.812,164.481 139.479,161.314 143.5,153.5 Z"/></g>
<g><path style="opacity:1" fill="#ebeef3" d="M 160.5,148.5 C 161.5,148.5 162.5,148.5 163.5,148.5C 163.5,153.5 163.5,158.5 163.5,163.5C 160.223,163.784 157.057,163.451 154,162.5C 153.333,159.833 153.333,157.167 154,154.5C 156,153.167 158,153.167 160,154.5C 160.495,152.527 160.662,150.527 160.5,148.5 Z"/></g>
<g><path style="opacity:1" fill="#254b8f" d="M 83.5,155.5 C 87.35,155.701 88.35,157.534 86.5,161C 82.5369,161.118 81.5369,159.284 83.5,155.5 Z"/></g>
<g><path style="opacity:1" fill="#244a8e" d="M 107.5,155.5 C 108.496,155.414 109.329,155.748 110,156.5C 110.494,158.134 110.66,159.801 110.5,161.5C 106.556,161.116 105.556,159.116 107.5,155.5 Z"/></g>
<g><path style="opacity:1" fill="#1a458c" d="M 133.5,155.5 C 137.35,155.701 138.35,157.534 136.5,161C 135.552,161.483 134.552,161.649 133.5,161.5C 133.5,159.5 133.5,157.5 133.5,155.5 Z"/></g>
<g><path style="opacity:1" fill="#244b8e" d="M 145.5,155.5 C 149.35,155.701 150.35,157.534 148.5,161C 144.537,161.118 143.537,159.284 145.5,155.5 Z"/></g>
<g><path style="opacity:1" fill="#21478c" d="M 157.5,155.5 C 160.513,156.356 161.18,158.189 159.5,161C 158.552,161.483 157.552,161.649 156.5,161.5C 156.325,159.379 156.659,157.379 157.5,155.5 Z"/></g>
<g><path style="opacity:1" fill="#f2f4f7" d="M 61.5,168.5 C 64.2492,168.274 66.9159,168.607 69.5,169.5C 71.902,174.845 70.2354,177.179 64.5,176.5C 64.5,178.5 64.5,180.5 64.5,182.5C 63.5,182.5 62.5,182.5 61.5,182.5C 61.5,177.833 61.5,173.167 61.5,168.5 Z"/></g>
<g><path style="opacity:1" fill="#e4e8ee" d="M 78.5,174.5 C 77.5,174.5 76.5,174.5 75.5,174.5C 75.5,177.167 75.5,179.833 75.5,182.5C 74.5,182.5 73.5,182.5 72.5,182.5C 72.1774,178.774 72.5108,175.107 73.5,171.5C 74.8333,172.833 76.1667,172.833 77.5,171.5C 78.3857,172.325 78.719,173.325 78.5,174.5 Z"/></g>
<g><path style="opacity:1" fill="#dee3eb" d="M 78.5,174.5 C 82.6458,170.29 86.4792,170.624 90,175.5C 90.4652,174.069 91.2986,172.903 92.5,172C 95.2713,172.347 97.9379,172.18 100.5,171.5C 100.772,175.902 100.439,180.235 99.5,184.5C 97.1489,186.229 94.4822,186.896 91.5,186.5C 91.0646,183.387 92.0646,182.721 94.5,184.5C 95.91,184.132 96.91,183.299 97.5,182C 93.9313,183.358 91.4313,182.192 90,178.5C 83.4778,184.699 79.6445,183.365 78.5,174.5 Z"/></g>
<g><path style="opacity:1" fill="#eaedf2" d="M 102.5,171.5 C 104.205,172.535 105.872,172.535 107.5,171.5C 108.627,173.269 108.127,174.603 106,175.5C 105.503,177.81 105.337,180.143 105.5,182.5C 104.5,182.5 103.5,182.5 102.5,182.5C 102.5,178.833 102.5,175.167 102.5,171.5 Z"/></g>
<g><path style="opacity:1" fill="#e2e6ed" d="M 120.5,171.5 C 124.788,171.75 129.121,171.917 133.5,172C 134,172.5 134.5,173 135,173.5C 135.498,176.482 135.665,179.482 135.5,182.5C 134.5,182.5 133.5,182.5 132.5,182.5C 132.5,179.833 132.5,177.167 132.5,174.5C 131.5,174.5 130.5,174.5 129.5,174.5C 129.5,177.167 129.5,179.833 129.5,182.5C 128.5,182.5 127.5,182.5 126.5,182.5C 126.5,179.833 126.5,177.167 126.5,174.5C 125.5,174.5 124.5,174.5 123.5,174.5C 123.5,177.167 123.5,179.833 123.5,182.5C 122.5,182.5 121.5,182.5 120.5,182.5C 120.5,178.833 120.5,175.167 120.5,171.5 Z"/></g>
<g><path style="opacity:1" fill="#e4e8ef" d="M 137.5,171.5 C 141.788,171.75 146.121,171.917 150.5,172C 151,172.5 151.5,173 152,173.5C 152.498,176.482 152.665,179.482 152.5,182.5C 151.5,182.5 150.5,182.5 149.5,182.5C 149.5,179.833 149.5,177.167 149.5,174.5C 148.5,174.5 147.5,174.5 146.5,174.5C 146.5,177.167 146.5,179.833 146.5,182.5C 145.5,182.5 144.5,182.5 143.5,182.5C 143.5,179.833 143.5,177.167 143.5,174.5C 142.5,174.5 141.5,174.5 140.5,174.5C 140.5,177.167 140.5,179.833 140.5,182.5C 139.5,182.5 138.5,182.5 137.5,182.5C 137.5,178.833 137.5,175.167 137.5,171.5 Z"/></g>
<g><path style="opacity:1" fill="#e6eaf0" d="M 163.5,177.5 C 161.076,177.192 158.743,177.526 156.5,178.5C 156.624,179.107 156.957,179.44 157.5,179.5C 159.224,180.26 160.89,180.593 162.5,180.5C 159.454,183.266 156.621,182.933 154,179.5C 153.195,173.468 155.695,171.135 161.5,172.5C 162.95,173.85 163.617,175.516 163.5,177.5 Z"/></g>
<g><path style="opacity:1" fill="#1c3f8a" d="M 64.5,170.5 C 65.5,170.5 66.5,170.5 67.5,170.5C 67.5,171.833 67.5,173.167 67.5,174.5C 66.5,174.5 65.5,174.5 64.5,174.5C 64.5,173.167 64.5,171.833 64.5,170.5 Z"/></g>
<g><path style="opacity:1" fill="#2b458c" d="M 157.5,173.5 C 158.756,173.461 159.756,173.961 160.5,175C 159.167,175.667 157.833,175.667 156.5,175C 157.056,174.617 157.389,174.117 157.5,173.5 Z"/></g>
<g><path style="opacity:1" fill="#23488d" d="M 81.5,174.5 C 85.6759,173.831 87.0093,175.331 85.5,179C 84.2068,179.49 82.8734,179.657 81.5,179.5C 81.5,177.833 81.5,176.167 81.5,174.5 Z"/></g>
<g><path style="opacity:1" fill="#22498e" d="M 93.5,174.5 C 94.8333,174.5 96.1667,174.5 97.5,174.5C 98.2436,177.95 96.9103,179.616 93.5,179.5C 93.5,177.833 93.5,176.167 93.5,174.5 Z"/></g>
<g><path style="opacity:1" fill="#e0e4ec" d="M 110.5,171.5 C 113.365,171.055 115.865,171.722 118,173.5C 118.498,176.482 118.665,179.482 118.5,182.5C 115.723,182.214 112.889,181.88 110,181.5C 108.868,176.959 110.701,174.792 115.5,175C 114.135,173.318 112.635,173.151 111,174.5C 110.517,173.552 110.351,172.552 110.5,171.5 Z"/></g>
<g><path style="opacity:1" fill="#8194b8" d="M 163.5,177.5 C 161.5,178.167 159.5,178.833 157.5,179.5C 156.957,179.44 156.624,179.107 156.5,178.5C 158.743,177.526 161.076,177.192 163.5,177.5 Z"/></g>
<g><path style="opacity:1" fill="#2b4b8f" d="M 112.5,177.5 C 114.355,177.272 115.188,177.939 115,179.5C 112.366,180.692 111.532,180.026 112.5,177.5 Z"/></g>
</svg>
